<svg width="99" height="19" viewBox="0 0 99 19" fill="none" xmlns="http://www.w3.org/2000/svg">
<g clip-path="url(#clip0_9365_85853)">
<path d="M8.35218 14.6017H6.87401L6.42234 13.8897C6.42234 13.8897 5.4061 14.7587 3.8766 14.7587C2.01862 14.7587 0.253021 13.3662 0.253021 10.3822C0.253021 7.64955 1.99809 5.89058 4.37959 5.89058C5.10841 5.89058 5.79617 6.09998 5.79617 6.09998V1.84915H8.36245V14.6017H8.35218ZM5.76538 8.18352C5.76538 8.18352 5.33424 7.95318 4.63622 7.95318C3.6405 7.95318 2.93221 8.79078 2.93221 10.3403C2.93221 11.848 3.58918 12.5914 4.54383 12.5914C5.31371 12.5914 5.76538 12.2668 5.76538 12.2668V8.18352Z" fill="white"/>
<path d="M13.6285 3.77596C13.6285 4.59262 13.1974 5.12659 12.2633 5.12659C11.2983 5.12659 10.9288 4.58215 10.9288 3.77596C10.9288 2.91742 11.2881 2.42532 12.2633 2.42532C13.2077 2.42532 13.6285 2.91742 13.6285 3.77596ZM13.5259 6.07937H10.9596V12.1311C10.9596 13.2304 11.0725 14.78 13.1358 14.78C14.0391 14.78 14.7474 14.2669 14.7474 14.2669L14.6345 12.5603C14.6345 12.5603 14.3163 12.7069 13.9467 12.7069C13.6901 12.7069 13.5259 12.5289 13.5259 12.0787V6.07937Z" fill="white"/>
<path d="M16.6876 6.66501C16.6876 6.66501 18.1042 5.91116 19.798 5.91116C22.744 5.91116 23.4113 7.35603 23.4113 9.71179V12.2455C23.4113 12.5282 23.6063 12.7272 23.8321 12.7272C24.2222 12.7272 24.5096 12.5596 24.5096 12.5596L24.6225 14.2663C24.6225 14.2663 23.8219 14.7793 22.7646 14.7793C21.8304 14.7793 21.3583 14.0778 21.2453 13.481C21.2453 13.481 20.3112 14.7793 18.5662 14.7793C17.4267 14.7793 16.1949 14.172 16.1949 12.4131C16.1949 9.60709 20.147 9.6385 20.8347 9.6385C20.8347 8.66478 20.4652 8.14128 19.3976 8.14128C18.094 8.14128 16.7698 8.81136 16.7698 8.81136L16.6876 6.66501ZM20.8142 11.0205C19.685 11.0729 18.7817 11.2823 18.7817 12.0257C18.7817 12.3921 19.0075 12.8004 19.5721 12.8004C20.2496 12.8004 20.8142 12.256 20.8142 12.256V11.0205Z" fill="white"/>
<path d="M33.861 6.07939V8.24669L32.3315 8.16293C32.4239 8.34092 32.5882 8.75972 32.5882 9.05288C32.5882 10.0057 32.1365 12.0892 29.2007 12.0892C29.0056 12.0892 28.7798 12.0892 28.7182 12.0682C28.6874 12.1206 28.5745 12.2148 28.5745 12.3823C28.5745 12.5499 28.8209 12.6127 29.3957 12.6127C31.4898 12.6127 33.2656 13.2095 33.2656 15.0731C33.2656 16.7379 31.7464 18.1932 29.2725 18.1932C27.2914 18.1932 25.7003 17.3556 25.7003 15.6595C25.7003 14.4554 27.3324 13.4294 27.3324 13.4294C26.8294 13.22 26.6755 12.8535 26.6857 12.2148L27.2811 11.5238C26.4086 11.1259 25.9261 10.1941 25.9261 9.02147C25.9261 7.51378 26.9116 5.9014 29.2109 5.9014C30.0527 5.9014 30.9355 6.15268 30.9355 6.15268L33.861 6.07939ZM28.6464 14.5392C28.6464 14.5392 28.1023 14.8533 28.1023 15.3768C28.1023 15.9212 28.6669 16.2772 29.3752 16.2772C30.0835 16.2772 30.761 15.9003 30.761 15.2721C30.761 14.8114 30.258 14.5496 29.4368 14.5496C29.098 14.5601 28.6258 14.5392 28.6464 14.5392ZM28.2255 8.99006C28.2255 9.61826 28.6156 10.1418 29.252 10.1418C29.909 10.1418 30.3298 9.62873 30.3298 8.97959C30.3298 8.20481 29.8987 7.82788 29.252 7.82788C28.6258 7.81741 28.2255 8.30951 28.2255 8.99006Z" fill="white"/>
<path d="M51.7324 4.37211H53.2003L53.8162 5.53428C54.4424 4.56057 55.4073 4.20459 56.1053 4.20459C56.8034 4.20459 57.0703 4.38258 57.0703 4.38258L56.9368 6.63364C56.9368 6.63364 56.5159 6.43471 55.9411 6.43471C55.0275 6.43471 54.309 7.09432 54.309 7.09432V12.9052H51.7324V4.37211Z" fill="white"/>
<path d="M61.4741 2.0689C61.4741 2.88556 61.0429 3.41953 60.1088 3.41953C59.1439 3.41953 58.7743 2.87509 58.7743 2.0689C58.7743 1.21035 59.1336 0.718262 60.1088 0.718262C61.0532 0.728732 61.4741 1.22082 61.4741 2.0689ZM61.3817 4.3723H58.8154V10.424C58.8154 11.5233 58.9283 13.0729 60.9916 13.0729C61.8949 13.0729 62.6032 12.5599 62.6032 12.5599L62.4903 10.8533C62.4903 10.8533 62.1721 10.9998 61.7923 10.9998C61.5356 10.9998 61.3714 10.8218 61.3714 10.3716V4.3723H61.3817Z" fill="white"/>
<path d="M66.5654 9.30376C66.6475 10.11 67.4687 10.7696 68.6287 10.7696C69.9836 10.7696 71.0307 10.1623 71.0307 10.1623L71.3078 12.2982C71.3078 12.2982 70.1171 13.073 68.3412 13.073C65.816 13.073 63.9375 11.7119 63.9375 8.76979C63.9375 6.03712 65.5286 4.21533 67.9512 4.21533C70.5585 4.21533 71.5131 6.03712 71.5131 7.84843C71.5131 8.50804 71.3694 9.31423 71.3694 9.31423H66.5654V9.30376ZM68.9879 7.8589C69.0803 6.90613 68.68 6.33028 67.8588 6.33028C67.0992 6.33028 66.5243 6.95848 66.5243 7.94266L68.9879 7.8589Z" fill="white"/>
<path d="M73.751 4.37211H75.2189L75.6705 5.0736C75.6705 5.0736 76.851 4.20459 78.4626 4.20459C80.8955 4.20459 81.3163 5.61805 81.3163 7.12573V12.9052H78.7501V7.56547C78.7501 6.70693 78.4319 6.31954 77.703 6.31954C76.9434 6.31954 76.3378 6.75928 76.3378 6.75928V12.9052H73.7612V4.37211H73.751Z" fill="white"/>
<path d="M84.3755 4.37232V2.82275L86.9008 2.18408V4.37232H88.9846V6.3721H86.911V9.94238C86.911 10.4554 87.1574 10.6962 87.5885 10.6962C88.1531 10.6962 88.923 10.4345 88.923 10.4345L89.0872 12.4866C89.0872 12.4866 88.1018 13.0625 86.6749 13.0625C85.1762 13.0625 84.355 12.1097 84.355 10.4031V6.3721H83.0308V4.37232H84.3755Z" fill="white"/>
<path d="M93.2651 9.30376C93.3472 10.11 94.1684 10.7696 95.3283 10.7696C96.6833 10.7696 97.7303 10.1623 97.7303 10.1623L98.0075 12.2982C98.0075 12.2982 96.8168 13.073 95.0409 13.073C92.5157 13.073 90.6372 11.7119 90.6372 8.76979C90.6372 6.03712 92.2283 4.21533 94.6508 4.21533C97.2582 4.21533 98.2128 6.03712 98.2128 7.84843C98.2128 8.50804 98.0691 9.31423 98.0691 9.31423H93.2651V9.30376ZM95.6876 7.8589C95.78 6.90613 95.3797 6.33028 94.5585 6.33028C93.7988 6.33028 93.224 6.95848 93.224 7.94266L95.6876 7.8589Z" fill="white"/>
<path d="M45.7072 8.5185C44.7525 9.5655 43.1409 9.61785 42.1247 8.64414L40.1846 10.7696C42.3608 12.8426 45.7585 12.7275 47.791 10.5078C49.8235 8.28816 49.7106 4.82258 47.5344 2.74951L45.5943 4.86446C46.6105 5.83817 46.6618 7.4715 45.7072 8.5185Z" fill="#00CFFF"/>
<path d="M37.4643 4.82261C35.4318 7.04226 35.5447 10.5078 37.7209 12.5809L39.661 10.466C38.6345 9.49225 38.5729 7.85892 39.5173 6.81192C40.4617 5.76491 42.0733 5.70209 43.0998 6.66534C43.1101 6.67581 43.1101 6.67581 43.1203 6.68628L45.0604 4.56086C42.8945 2.48779 39.4968 2.61344 37.4643 4.82261Z" fill="#FF0060"/>
</g>
<defs>
<clipPath id="clip0_9365_85853">
<rect width="98.4546" height="19" fill="white"/>
</clipPath>
</defs>
</svg>
