<?xml version="1.0" encoding="iso-8859-1"?>
<!-- Generator: Adobe Illustrator 16.0.0, SVG Export Plug-In . SVG Version: 6.00 Build 0)  -->
<!DOCTYPE svg PUBLIC "-//W3C//DTD SVG 1.1//EN" "http://www.w3.org/Graphics/SVG/1.1/DTD/svg11.dtd">
<svg version="1.1" id="Capa_1" xmlns="http://www.w3.org/2000/svg" xmlns:xlink="http://www.w3.org/1999/xlink" x="0px" y="0px"
	 width="598.766px" height="598.767px" viewBox="0 0 598.766 598.767" style="enable-background:new 0 0 598.766 598.767;"
	 xml:space="preserve">
<g>
	<g>
		<path fill="#47505F" d="M265.441,250.995l257.084-87.624c29.961-10.18,46.076-42.827,35.927-72.808l-17.28-51.039
			c-7.9-23.339-29.765-39.022-54.402-39.024h-0.003h-0.005c-6.271,0-12.469,1.022-18.42,3.038l-0.041,0.014l-0.041,0.014
			L60.613,142.507c-29.986,10.165-46.118,42.826-35.964,72.819l17.28,51.039c6.028,17.806,20.185,31.145,37.497,36.476v237.286
			c0,32.059,26.082,58.14,58.14,58.14h381.449c32.059,0,58.14-26.081,58.14-58.14V293.835v-42.84h-42.84H265.441z M534.315,540.127
			c0,8.45-6.85,15.3-15.3,15.3H137.566c-8.45,0-15.3-6.85-15.3-15.3V299.795l17.483-5.959h394.565V540.127z M74.375,183.076
			L482.082,44.115c1.552-0.525,3.132-0.775,4.685-0.775c6.088,0,11.768,3.837,13.829,9.923l17.279,51.038
			c2.587,7.638-1.51,15.927-9.147,18.514L132.65,250.995l-31.63,10.78c-1.552,0.525-3.132,0.775-4.684,0.775
			c-6.088,0-11.769-3.837-13.83-9.923l-0.552-1.632l-16.728-49.406C62.641,193.95,66.737,185.662,74.375,183.076z"/>
		<path fill="#47505F" d="M519.015,598.767H137.566c-32.334,0-58.64-26.306-58.64-58.64V303.209c-17.567-5.533-31.559-19.222-37.47-36.684
			l-17.28-51.039c-10.241-30.25,6.033-63.201,36.277-73.453L468.099,3.092C474.184,1.032,480.435,0,486.762,0
			c24.861,0.002,46.914,15.821,54.884,39.364l17.28,51.039c10.233,30.229-6.023,63.174-36.239,73.441l-254.229,86.65h309.197
			v289.632C577.655,572.461,551.349,598.767,519.015,598.767z M486.77,1c-6.226,0-12.369,1.014-18.268,3.012L60.774,142.98
			c-29.723,10.076-45.715,42.458-35.651,72.186l17.28,51.039c5.848,17.275,19.744,30.792,37.17,36.158l0.353,0.108v237.655
			c0,31.782,25.857,57.64,57.64,57.64h381.449c31.782,0,57.64-25.857,57.64-57.64V251.495h-314.23l259.94-88.597
			c29.694-10.09,45.671-42.467,35.614-72.174l-17.28-51.039C532.867,16.548,511.195,1.002,486.77,1z M519.015,555.927H137.566
			c-8.712,0-15.8-7.088-15.8-15.8V299.438l17.983-6.102h395.065v246.792C534.815,548.839,527.727,555.927,519.015,555.927z
			 M122.767,300.152v239.975c0,8.16,6.639,14.8,14.8,14.8h381.449c8.161,0,14.8-6.64,14.8-14.8V294.335H139.833L122.767,300.152z
			 M96.336,263.05c-6.477,0-12.225-4.125-14.303-10.263l-17.28-51.039c-1.293-3.82-1.021-7.916,0.765-11.532
			c1.787-3.616,4.875-6.32,8.697-7.614L481.92,43.642c1.573-0.533,3.203-0.802,4.846-0.802c6.476,0,12.224,4.124,14.303,10.263
			l17.279,51.039c1.294,3.82,1.022,7.916-0.765,11.533s-4.875,6.321-8.696,7.615l-407.706,138.96
			C99.609,262.78,97.979,263.05,96.336,263.05z M486.766,43.839c-1.533,0-3.055,0.252-4.524,0.749L74.537,183.549
			c-3.569,1.208-6.453,3.733-8.122,7.11c-1.668,3.377-1.922,7.201-0.714,10.769l17.28,51.039c1.941,5.732,7.309,9.583,13.356,9.583
			c1.533,0,3.055-0.252,4.524-0.749l407.706-138.96c3.568-1.208,6.452-3.734,8.121-7.111s1.922-7.202,0.714-10.769l-17.279-51.039
			C498.18,47.69,492.813,43.839,486.766,43.839z"/>
	</g>
	<g>
		<path fill="#47505F" d="M418.656,514.62h48.127c8.45,0,15.3-6.85,15.3-15.3v-10.899c0-8.45-6.85-15.3-15.3-15.3h-48.127
			c-8.45,0-15.3,6.85-15.3,15.3v10.899C403.356,507.771,410.206,514.62,418.656,514.62z"/>
		<path fill="#47505F" d="M466.783,515.12h-48.127c-8.712,0-15.8-7.088-15.8-15.8v-10.899c0-8.712,7.088-15.8,15.8-15.8h48.127
			c8.712,0,15.8,7.088,15.8,15.8v10.899C482.583,508.032,475.495,515.12,466.783,515.12z M418.656,473.621
			c-8.16,0-14.8,6.64-14.8,14.8v10.899c0,8.16,6.64,14.8,14.8,14.8h48.127c8.16,0,14.8-6.64,14.8-14.8v-10.899
			c0-8.16-6.64-14.8-14.8-14.8H418.656z"/>
	</g>
</g>
</svg>
