<svg width="14" height="14" viewBox="0 0 14 14" fill="none" xmlns="http://www.w3.org/2000/svg">
<path d="M6.99635 0.456252C4.79837 0.456252 2.85687 1.53665 1.66807 3.19203V2.09084C1.66807 1.75228 1.3928 1.47787 1.05327 1.47787C0.713739 1.47787 0.438477 1.7523 0.438477 2.09084V4.54271C0.438477 4.88119 0.713739 5.15568 1.05327 5.15568H3.71739C4.05692 5.15568 4.33218 4.8812 4.33218 4.54271C4.33218 4.20415 4.05692 3.92974 3.71739 3.92974H2.64798C3.61252 2.57056 5.19931 1.6822 6.99637 1.6822C9.939 1.6822 12.3246 4.06066 12.3246 6.9946C12.3246 9.92849 9.939 12.307 6.99637 12.307C4.51612 12.307 2.43784 10.6149 1.8439 8.32724L1.83323 8.33056C1.7504 8.08976 1.52788 7.914 1.25819 7.914C0.918662 7.914 0.643399 8.18843 0.643399 8.5269C0.643399 8.58732 0.661582 8.64204 0.677869 8.69711L0.671469 8.69913C0.675507 8.71397 0.682909 8.72725 0.687029 8.74202C0.691547 8.75392 0.694554 8.76582 0.699786 8.77739C1.47987 11.5191 3.9965 13.5329 6.99641 13.5329C10.6182 13.5329 13.5542 10.6056 13.5542 6.99459C13.5542 3.38353 10.6181 0.456238 6.99635 0.456238V0.456252ZM6.99635 3.21456C6.65682 3.21456 6.38156 3.48899 6.38156 3.82753V7.50534C6.38156 7.8439 6.65682 8.11831 6.99635 8.11831H9.66046C9.99999 8.11831 10.2753 7.84388 10.2753 7.50541C10.2753 7.1668 9.99999 6.89244 9.66046 6.89244H7.61115V3.82753C7.61115 3.48897 7.33587 3.21456 6.99634 3.21456H6.99635Z" fill="#374151"/>
</svg>
