<svg width="16" height="16" viewBox="0 0 16 16" fill="none" xmlns="http://www.w3.org/2000/svg">
                <rect x="2.27344" width="19.2732" height="3.2122" rx="1.6061" transform="rotate(45 2.27344 0)" fill="#9A9A9A" />
                <rect x="2.27344" width="19.2732" height="3.2122" rx="1.6061" transform="rotate(45 2.27344 0)" fill="#9A9A9A" />
                <rect x="2.27344" width="19.2732" height="3.2122" rx="1.6061" transform="rotate(45 2.27344 0)" fill="#A3A3A3" />
                <path
                  d="M14.7647 1.13556C15.3919 1.76278 15.3919 2.7797 14.7647 3.40692L3.40787 14.7638C2.78065 15.391 1.76372 15.391 1.1365 14.7638C0.509279 14.1365 0.509278 13.1196 1.1365 12.4924L12.4933 1.13556C13.1206 0.508336 14.1375 0.508336 14.7647 1.13556Z"
                  fill="#9A9A9A"
                />
                <path
                  d="M14.7647 1.13556C15.3919 1.76278 15.3919 2.7797 14.7647 3.40692L3.40787 14.7638C2.78065 15.391 1.76372 15.391 1.1365 14.7638C0.509279 14.1365 0.509278 13.1196 1.1365 12.4924L12.4933 1.13556C13.1206 0.508336 14.1375 0.508336 14.7647 1.13556Z"
                  fill="#9A9A9A"
                />
                <path
                  d="M14.7647 1.13556C15.3919 1.76278 15.3919 2.7797 14.7647 3.40692L3.40787 14.7638C2.78065 15.391 1.76372 15.391 1.1365 14.7638C0.509279 14.1365 0.509278 13.1196 1.1365 12.4924L12.4933 1.13556C13.1206 0.508336 14.1375 0.508336 14.7647 1.13556Z"
                  fill="#A3A3A3"
                />
              </svg>