<svg width="15" height="11" viewBox="0 0 15 11" fill="none" xmlns="http://www.w3.org/2000/svg">
<path d="M14.9698 5.33C14.3817 3.80882 13.3608 2.49331 12.0332 1.54604C10.7056 0.598778 9.12953 0.0612865 7.49979 0C5.87005 0.0612865 4.29398 0.598778 2.96639 1.54604C1.6388 2.49331 0.617868 3.80882 0.0297873 5.33C-0.00992909 5.43985 -0.00992909 5.56015 0.0297873 5.67C0.617868 7.19118 1.6388 8.50669 2.96639 9.45396C4.29398 10.4012 5.87005 10.9387 7.49979 11C9.12953 10.9387 10.7056 10.4012 12.0332 9.45396C13.3608 8.50669 14.3817 7.19118 14.9698 5.67C15.0095 5.56015 15.0095 5.43985 14.9698 5.33ZM7.49979 10C4.84979 10 2.04979 8.035 1.03479 5.5C2.04979 2.965 4.84979 1 7.49979 1C10.1498 1 12.9498 2.965 13.9648 5.5C12.9498 8.035 10.1498 10 7.49979 10Z" fill="#2D3748"/>
<path d="M7.49976 2.5C6.90641 2.5 6.32639 2.67595 5.83305 3.00559C5.3397 3.33524 4.95518 3.80377 4.72812 4.35195C4.50106 4.90013 4.44165 5.50333 4.5574 6.08527C4.67316 6.66721 4.95888 7.20176 5.37844 7.62132C5.79799 8.04088 6.33254 8.3266 6.91449 8.44236C7.49643 8.55811 8.09963 8.4987 8.64781 8.27164C9.19599 8.04458 9.66452 7.66006 9.99417 7.16671C10.3238 6.67336 10.4998 6.09334 10.4998 5.5C10.4998 4.70435 10.1837 3.94129 9.62108 3.37868C9.05847 2.81607 8.29541 2.5 7.49976 2.5ZM7.49976 7.5C7.10419 7.5 6.71751 7.3827 6.38862 7.16294C6.05972 6.94318 5.80337 6.63082 5.652 6.26537C5.50062 5.89991 5.46102 5.49778 5.53819 5.10982C5.61536 4.72186 5.80584 4.36549 6.08554 4.08579C6.36525 3.80608 6.72161 3.6156 7.10958 3.53843C7.49754 3.46126 7.89967 3.50087 8.26512 3.65224C8.63058 3.80362 8.94293 4.05996 9.1627 4.38886C9.38246 4.71776 9.49976 5.10444 9.49976 5.5C9.49976 6.03043 9.28904 6.53914 8.91397 6.91421C8.5389 7.28929 8.03019 7.5 7.49976 7.5Z" fill="#2D3748"/>
</svg>
