<svg width="13" height="14" viewBox="0 0 13 14" fill="none" xmlns="http://www.w3.org/2000/svg">
<path d="M12.0118 1.48816L12.3654 1.1346V1.1346L12.0118 1.48816ZM2.83333 13.0237V13.5237C2.96594 13.5237 3.09312 13.471 3.18689 13.3772L2.83333 13.0237ZM0.5 13.0237H0C0 13.2998 0.223858 13.5237 0.5 13.5237L0.5 13.0237ZM0.5 10.6429L0.146447 10.2894C0.0526784 10.3832 0 10.5103 0 10.6429H0.5ZM10.0083 1.84171C10.4639 1.3861 11.2026 1.3861 11.6583 1.84171L12.3654 1.1346C11.5192 0.288466 10.1474 0.288466 9.30123 1.1346L10.0083 1.84171ZM11.6583 1.84171C12.1139 2.29732 12.1139 3.03601 11.6583 3.49162L12.3654 4.19873C13.2115 3.3526 13.2115 1.98074 12.3654 1.1346L11.6583 1.84171ZM11.6583 3.49162L2.47978 12.6701L3.18689 13.3772L12.3654 4.19873L11.6583 3.49162ZM2.83333 12.5237H0.5V13.5237H2.83333V12.5237ZM9.30123 1.1346L0.146447 10.2894L0.853553 10.9965L10.0083 1.84171L9.30123 1.1346ZM0 10.6429V13.0237H1V10.6429H0ZM8.30123 2.84171L10.6583 5.19873L11.3654 4.49162L9.00834 2.1346L8.30123 2.84171Z" fill="#2563EB"/>
</svg>
