<svg width="22" height="24" viewBox="0 0 22 24" fill="none" xmlns="http://www.w3.org/2000/svg">
<path d="M21.7521 14.9194L19.4615 12.7116V9.78696C19.4589 7.76582 18.6789 5.81741 17.2722 4.31848C15.8656 2.81955 13.9323 1.87659 11.8462 1.67194V0H10.1538V1.67194C8.06772 1.87659 6.13441 2.81955 4.72777 4.31848C3.32114 5.81741 2.54109 7.76582 2.53846 9.78696V12.7116L0.247923 14.9194C0.0892274 15.0723 4.7924e-05 15.2797 0 15.496V17.9428C0 18.1591 0.0891481 18.3665 0.247833 18.5195C0.406517 18.6724 0.62174 18.7583 0.846154 18.7583H6.76923V19.392C6.75082 20.4267 7.12919 21.4315 7.83182 22.214C8.53444 22.9964 9.51192 23.5014 10.5769 23.6322C11.1652 23.6885 11.7591 23.6254 12.3205 23.4471C12.8819 23.2688 13.3984 22.9792 13.8368 22.597C14.2751 22.2147 14.6256 21.7483 14.8657 21.2276C15.1057 20.707 15.2301 20.1437 15.2308 19.5739V18.7583H21.1538C21.3783 18.7583 21.5935 18.6724 21.7522 18.5195C21.9109 18.3665 22 18.1591 22 17.9428V15.496C22 15.2797 21.9108 15.0723 21.7521 14.9194ZM13.5385 19.5739C13.5385 20.2228 13.271 20.8452 12.795 21.304C12.3189 21.7629 11.6732 22.0207 11 22.0207C10.3268 22.0207 9.68109 21.7629 9.20504 21.304C8.72898 20.8452 8.46154 20.2228 8.46154 19.5739V18.7583H13.5385V19.5739ZM20.3077 17.1272H1.69231V15.8337L3.98285 13.6259C4.14154 13.473 4.23072 13.2656 4.23077 13.0493V9.78696C4.23077 8.05652 4.94395 6.39695 6.21343 5.17334C7.48291 3.94974 9.20469 3.26232 11 3.26232C12.7953 3.26232 14.5171 3.94974 15.7866 5.17334C17.056 6.39695 17.7692 8.05652 17.7692 9.78696V13.0493C17.7693 13.2656 17.8585 13.473 18.0172 13.6259L20.3077 15.8337V17.1272Z" fill="#4A5568"/>
</svg>
