<svg width="16" height="16" viewBox="0 0 16 16" fill="none" xmlns="http://www.w3.org/2000/svg">
<path d="M8.00065 2.99992V1.33325M8.00065 2.99992C7.08018 2.99992 6.33399 3.74611 6.33399 4.66659C6.33399 5.58706 7.08018 6.33325 8.00065 6.33325M8.00065 2.99992C8.92113 2.99992 9.66732 3.74611 9.66732 4.66659C9.66732 5.58706 8.92113 6.33325 8.00065 6.33325M3.00065 12.9999C3.92113 12.9999 4.66732 12.2537 4.66732 11.3333C4.66732 10.4128 3.92113 9.66659 3.00065 9.66659M3.00065 12.9999C2.08018 12.9999 1.33398 12.2537 1.33398 11.3333C1.33398 10.4128 2.08018 9.66659 3.00065 9.66659M3.00065 12.9999V14.6666M3.00065 9.66659V1.33325M8.00065 6.33325V14.6666M13.0007 12.9999C13.9211 12.9999 14.6673 12.2537 14.6673 11.3333C14.6673 10.4128 13.9211 9.66659 13.0007 9.66659M13.0007 12.9999C12.0802 12.9999 11.334 12.2537 11.334 11.3333C11.334 10.4128 12.0802 9.66659 13.0007 9.66659M13.0007 12.9999V14.6666M13.0007 9.66659V1.33325" stroke="#2563EB" stroke-width="1.3" stroke-linecap="round" stroke-linejoin="round"/>
</svg>
