<svg width="16" height="16" viewBox="0 0 16 16" fill="none" xmlns="http://www.w3.org/2000/svg">
<path d="M7.99968 2.99992V1.33325M7.99968 2.99992C7.0792 2.99992 6.33301 3.74611 6.33301 4.66659C6.33301 5.58706 7.0792 6.33325 7.99968 6.33325M7.99968 2.99992C8.92015 2.99992 9.66634 3.74611 9.66634 4.66659C9.66634 5.58706 8.92015 6.33325 7.99968 6.33325M2.99967 12.9999C3.92015 12.9999 4.66634 12.2537 4.66634 11.3333C4.66634 10.4128 3.92015 9.66659 2.99967 9.66659M2.99967 12.9999C2.0792 12.9999 1.33301 12.2537 1.33301 11.3333C1.33301 10.4128 2.0792 9.66659 2.99967 9.66659M2.99967 12.9999V14.6666M2.99967 9.66659V1.33325M7.99968 6.33325V14.6666M12.9997 12.9999C13.9202 12.9999 14.6663 12.2537 14.6663 11.3333C14.6663 10.4128 13.9202 9.66659 12.9997 9.66659M12.9997 12.9999C12.0792 12.9999 11.333 12.2537 11.333 11.3333C11.333 10.4128 12.0792 9.66659 12.9997 9.66659M12.9997 12.9999V14.6666M12.9997 9.66659V1.33325" stroke="#D1D5DB" stroke-width="1.3" stroke-linecap="round" stroke-linejoin="round"/>
</svg>
