<svg xmlns="http://www.w3.org/2000/svg" viewBox="0 0 32 40" x="0px" y="0px"><title>music, sound, volume, More</title><g data-name="Layer 15"><path d="M16,2A14,14,0,1,0,30,16,14,14,0,0,0,16,2Zm0,26A12,12,0,1,1,28,16,12,12,0,0,1,16,28ZM12,16a2,2,0,1,1-2-2A2,2,0,0,1,12,16Zm6,0a2,2,0,1,1-2-2A2,2,0,0,1,18,16Zm6,0a2,2,0,1,1-2-2A2,2,0,0,1,24,16Z"/></g><text x="0" y="47" fill="#000000" font-size="5px" font-weight="bold" font-family="'Helvetica Neue', Helvetica, Arial-Unicode, Arial, Sans-serif">Created by Caesar Rizky Kurniawan</text><text x="0" y="52" fill="#000000" font-size="5px" font-weight="bold" font-family="'Helvetica Neue', Helvetica, Arial-Unicode, Arial, Sans-serif">from the Noun Project</text></svg>