<svg width="12" height="12" viewBox="0 0 12 12" fill="none" xmlns="http://www.w3.org/2000/svg">
<path d="M10.8228 1.17714L11.1764 0.823583V0.823583L10.8228 1.17714ZM2.79167 11.2707V11.7707C2.92427 11.7707 3.05145 11.718 3.14522 11.6242L2.79167 11.2707ZM0.75 11.2707H0.25C0.25 11.5468 0.473858 11.7707 0.75 11.7707L0.75 11.2707ZM0.75 9.18757L0.396447 8.83402C0.302678 8.92779 0.25 9.05496 0.25 9.18757H0.75ZM9.11399 1.53069C9.48824 1.15644 10.095 1.15644 10.4693 1.53069L11.1764 0.823583C10.4116 0.0588058 9.17166 0.0588058 8.40688 0.823583L9.11399 1.53069ZM10.4693 1.53069C10.8435 1.90494 10.8435 2.51172 10.4693 2.88598L11.1764 3.59308C11.9412 2.82831 11.9412 1.58836 11.1764 0.823583L10.4693 1.53069ZM10.4693 2.88598L2.43811 10.9171L3.14522 11.6242L11.1764 3.59308L10.4693 2.88598ZM2.79167 10.7707H0.75V11.7707H2.79167V10.7707ZM8.40688 0.823583L0.396447 8.83402L1.10355 9.54113L9.11399 1.53069L8.40688 0.823583ZM0.25 9.18757V11.2707H1.25V9.18757H0.25ZM7.53188 2.40569L9.59428 4.46808L10.3014 3.76098L8.23899 1.69858L7.53188 2.40569Z" fill="white"/>
</svg>
