<?xml version="1.0" encoding="iso-8859-1"?>
<!-- Generator: Adobe Illustrator 19.0.0, SVG Export Plug-In . SVG Version: 6.00 Build 0)  -->
<svg version="1.1" id="Capa_1" xmlns="http://www.w3.org/2000/svg" xmlns:xlink="http://www.w3.org/1999/xlink" x="0px" y="0px"
	 viewBox="0 0 512 512" style="enable-background:new 0 0 512 512;" xml:space="preserve">
<g>
	<g>
		<path fill='#ffffff' d="M424.385,20.69C401.182,6.768,376.445,0,348.761,0c-33.122,0-65.635,9.753-97.077,19.185
			c-30.716,9.214-59.729,17.917-88.446,17.919c-0.004,0-0.007,0-0.011,0c-19.199,0-36.583-4.064-52.894-12.382V15
			c0-8.284-6.716-15-15-15s-15,6.716-15,15v18.551v203.896V497c0,8.284,6.716,15,15,15s15-6.716,15-15V261.453
			c16.567,6.4,34.052,9.547,52.906,9.547c33.121,0,65.631-9.753,97.071-19.185c30.718-9.215,59.733-17.919,88.451-17.919
			c22.092,0,41.779,5.369,60.188,16.415c4.633,2.78,10.404,2.854,15.108,0.191c4.703-2.663,7.609-7.649,7.609-13.053V33.552
			C431.667,28.283,428.903,23.4,424.385,20.69z M251.691,223.081C220.972,232.296,191.957,241,163.24,241
			c-19.206,0-36.594-4.058-52.906-12.376V57.566c16.564,6.399,34.046,9.539,52.894,9.538c0.003,0,0.01,0,0.014,0
			c33.118-0.002,65.626-9.754,97.063-19.185C291.024,38.704,320.042,30,348.761,30c19.206,0,36.594,4.058,52.905,12.375v171.06
			c-16.566-6.4-34.052-9.539-52.905-9.539C315.641,203.896,283.13,213.649,251.691,223.081z"/>
	</g>
</g>
</svg>
