<svg height="512pt" viewBox="-3 0 512 512" width="512pt" xmlns="http://www.w3.org/2000/svg"><path fill='#ffffff' d="m83.445312 190.390625c36.777344 0 66.695313-29.917969 66.695313-66.695313 0-36.773437-29.917969-66.695312-66.695313-66.695312-36.777343 0-66.695312 29.917969-66.695312 66.695312 0 36.777344 29.917969 66.695313 66.695312 66.695313zm0-103.390625c20.234376 0 36.695313 16.460938 36.695313 36.695312 0 20.234376-16.460937 36.695313-36.695313 36.695313-20.234374 0-36.695312-16.460937-36.695312-36.695313 0-20.234374 16.460938-36.695312 36.695312-36.695312zm0 0"/><path fill='#ffffff' d="m498.605469 28.75c-43.417969-30.425781-90.1875-30.675781-142.972657-.769531-32.679687 18.515625-67.839843 19.691406-104.632812 3.542969v-16.523438c0-8.285156-6.714844-15-15-15s-15 6.714844-15 15v202.996094c-27.785156 0-146.269531-.03125-177.726562-.03125-23.441407 0-43.27734425 19.5625-43.273438 43.050781l.0195312 90.4375c0 16.558594 9.3710938 31.132813 23.5195308 38.320313l.054688 107.234374c.003906 8.28125 6.71875 14.992188 15 14.992188h89.382812c8.28125 0 15-6.71875 15-15v-189h78.023438v189c0 8.285156 6.714844 15 15 15s15-6.714844 15-15v-283.160156c14.554688 6.394531 29.507812 9.613281 44.96875 9.613281 23.535156-.003906 48.230469-7.417969 74.398438-22.242187 35.109374-19.894532 73.082031-19.777344 112.863281.335937 4.652343 2.347656 10.1875 2.117187 14.625-.609375 4.441406-2.730469 7.144531-7.566406 7.144531-12.777344v-147.128906c0-4.890625-2.386719-9.476562-6.394531-12.28125zm-281.609375 249.25h-89.015625c-8.285157 0-15 6.71875-15 15l-.003907 189h-59.390624l-.050782-102.914062c-.003906-7.3125-5.285156-13.558594-12.496094-14.78125-6.28125-1.0625-11.019531-6.589844-11.023437-12.859376 0 0-.015625-90.285156-.015625-90.4375-.003906-7.144531 6.222656-13.039062 13.273438-13.039062 31.453124 0 147.265624.027344 173.722656.03125zm138.582031-102.894531c-40.160156 22.757812-72.742187 24.394531-104.578125 4.957031v-116.257812c16.367188 5.839843 32.640625 8.890624 48.589844 9.097656 24.398437.328125 48.238281-6.019532 70.828125-18.816406 40.160156-22.757813 72.746093-24.394532 104.582031-4.957032v116.257813c-16.371094-5.839844-32.640625-8.894531-48.59375-9.097657-24.425781-.339843-48.238281 6.019532-70.828125 18.816407zm0 0"/></svg>
