<svg width="36" height="18" viewBox="0 0 36 18" fill="none" xmlns="http://www.w3.org/2000/svg">
<path opacity="0.2" d="M27.6729 10.6933C28.7085 10.3931 29.7206 10.0088 30.7445 9.66458L30.8504 9.92877C29.9207 11.3098 28.94 12.6788 28.0769 14.1119C27.6697 14.8224 27.3783 15.5957 27.2139 16.4016C27.0923 16.958 27.159 17.6385 27.9239 17.8226C28.5594 17.9907 29.0733 17.9187 29.344 17.1901C29.4866 16.8567 29.6642 16.54 29.8736 16.2455C31.7369 13.3713 33.565 10.4732 35.495 7.65109C35.7406 7.32267 35.903 6.93755 35.968 6.52981C36.033 6.12207 35.9986 5.70427 35.8677 5.31336C35.6284 4.54879 34.8634 4.59683 34.2044 4.59683C30.666 4.51276 27.1119 4.59682 23.7814 2.99564C23.6061 2.90349 23.4134 2.85063 23.2164 2.84062C23.0194 2.8306 22.8225 2.86366 22.639 2.93757C22.4556 3.01147 22.2897 3.12452 22.1525 3.26916C22.0153 3.4138 21.91 3.58667 21.8436 3.77621C21.5925 4.64485 22.1417 5.42144 23.1616 5.61358C24.2402 5.81368 25.3265 5.97777 26.4129 6.14185L26.4137 6.14196C27.41 6.29408 28.4143 6.41817 29.4107 6.57429C29.649 6.62771 29.8826 6.70135 30.109 6.79445C30.007 7.0026 29.9873 7.14271 29.9207 7.17073C28.3515 7.78318 26.8491 8.47169 25.2133 8.98407C23.5774 9.49645 21.8749 9.75664 20.2195 10.185C16.771 11.1449 13.1664 11.3738 9.62787 10.8575C7.95949 10.603 6.35848 10.0081 4.92047 9.10816C2.49224 7.52699 1.48015 3.7562 2.31571 0.906092C0.968285 -0.984362 0.247918 0.513365 0.0561634 1.49854C-0.108595 3.46399 0.0640091 5.38541 0.91134 7.1347C3.06105 11.582 6.96034 13.0871 11.503 13.3153C14.6614 13.5371 17.8346 13.2767 20.9178 12.5427C23.1773 11.9623 25.429 11.3338 27.6729 10.6933Z" fill="#101655"/>
</svg>
