<svg width="56" height="56" viewBox="0 0 56 56" fill="none" xmlns="http://www.w3.org/2000/svg">
<path fill-rule="evenodd" clip-rule="evenodd" d="M39.2 53.9C38.814 53.9 38.5 53.586 38.5 53.2C38.5 52.814 38.814 52.5 39.2 52.5C39.586 52.5 39.9 52.814 39.9 53.2C39.9 53.586 39.586 53.9 39.2 53.9Z" fill="#ECECFE"/>
<path fill-rule="evenodd" clip-rule="evenodd" d="M5.5999 45.5001C5.21392 45.5001 4.8999 45.1861 4.8999 44.8001C4.8999 44.4141 5.21392 44.1001 5.5999 44.1001C5.98588 44.1001 6.2999 44.4141 6.2999 44.8001C6.2999 45.1861 5.98588 45.5001 5.5999 45.5001Z" fill="#ECECFE"/>
<path fill-rule="evenodd" clip-rule="evenodd" d="M53.2 40.5997C52.814 40.5997 52.5 40.2857 52.5 39.8997C52.5 39.5137 52.814 39.1997 53.2 39.1997C53.586 39.1997 53.9 39.5137 53.9 39.8997C53.9 40.2857 53.586 40.5997 53.2 40.5997Z" fill="#ECECFE"/>
<path fill-rule="evenodd" clip-rule="evenodd" d="M45.4998 7.0001C45.1138 7.0001 44.7998 6.68608 44.7998 6.3001C44.7998 5.91408 45.1138 5.6001 45.4998 5.6001C45.8858 5.6001 46.1998 5.91408 46.1998 6.3001C46.1998 6.68608 45.8858 7.0001 45.4998 7.0001Z" fill="#ECECFE"/>
<path fill-rule="evenodd" clip-rule="evenodd" d="M16.7999 2.7999C16.4139 2.7999 16.0999 2.48588 16.0999 2.0999C16.0999 1.71389 16.4139 1.3999 16.7999 1.3999C17.1858 1.3999 17.4999 1.71389 17.4999 2.0999C17.4999 2.48588 17.1858 2.7999 16.7999 2.7999Z" fill="#ECECFE"/>
<path d="M25.9673 10.9768C26.259 11.7738 25.9911 12.7097 25.4632 13.1527C25.2384 13.3413 25.04 13.4528 24.7026 13.5553L24.4821 13.6164C24.4421 13.6266 24.4004 13.6368 24.3568 13.6471L24.0714 13.7112L22.725 13.9865L22.5558 14.0225L22.6503 14.0719L22.822 14.1651L23.1499 14.3496C23.4847 14.5429 23.5994 14.971 23.4061 15.3058C23.2128 15.6406 22.7847 15.7553 22.4499 15.562L22.3004 15.4768L21.9882 15.3054L20.9145 14.7439L20.4344 14.488C20.355 14.4451 20.2756 14.4019 20.1955 14.358L19.7025 14.0838L19.1659 13.7775C18.8311 13.5842 18.7164 13.1561 18.9097 12.8213C19.103 12.4865 19.5311 12.3717 19.8659 12.565L20.3886 12.8634C20.4713 12.9101 20.5522 12.9554 20.632 12.9997L20.7264 13.0515C20.7973 13.0018 20.8786 12.9645 20.968 12.9435L21.3508 12.8547L22.0815 12.6921L22.62 12.5783L23.7271 12.3531L24.0396 12.2837L24.1949 12.2443L24.3156 12.2081C24.3332 12.2023 24.3496 12.1965 24.3651 12.1907L24.4465 12.1559L24.5104 12.1197L24.5633 12.0802C24.6471 12.0099 24.7382 11.6918 24.6526 11.4581C24.5086 11.0646 23.9401 10.727 22.7416 10.5917L20.3734 10.3486L19.0681 10.2193L17.6128 10.0814L16.1252 9.95029L15.4538 9.89694L15.345 9.89874L15.2637 9.90685L15.1253 9.93056L15.0203 9.95472L14.9036 9.9861L14.7039 10.0477L14.3849 10.1594L13.9963 10.3082L13.5281 10.4978L12.6543 10.8666L11.0641 11.5571L10.9885 11.5834L10.9372 11.5959L10.8835 11.6037C10.8743 11.6046 10.8648 11.6052 10.8552 11.6057L10.795 11.6055L10.7285 11.5992L10.6544 11.5863L10.571 11.5663L10.4253 11.5216L10.3123 11.4813L10.1151 11.4035L9.96308 11.3394L9.60276 11.1792L9.03144 10.9132L7.39646 10.1293C7.04822 9.96141 6.90202 9.54301 7.0699 9.19476C7.23779 8.84652 7.6562 8.70032 8.00444 8.8682L9.23139 9.45363L9.72937 9.68611L10.2732 9.93345L10.6032 10.0772L10.7852 10.1509L12.1993 9.53683L12.9956 9.19954L13.3985 9.03472L13.86 8.85495L14.0621 8.78097L14.3341 8.68837L14.5739 8.61615L14.7187 8.57843L14.8533 8.5484L14.9794 8.52552L15.0987 8.50925L15.2129 8.49905C15.2316 8.49782 15.2502 8.49682 15.2686 8.49604L15.4327 8.49463L15.5954 8.50307L16.4688 8.57428L18.0127 8.7124L19.8366 8.88804L22.3176 9.14028L22.703 9.18047C24.4978 9.34545 25.5995 9.97226 25.9673 10.9768Z" fill="#C3C3EE"/>
<path d="M18.055 25.2339C18.3768 25.373 18.7587 25.2518 18.9382 24.9409C19.1315 24.6061 19.0168 24.178 18.682 23.9847L16.625 22.7971L16.5519 22.7604C16.2302 22.6213 15.8482 22.7424 15.6688 23.0533C15.4755 23.3881 15.5902 23.8162 15.925 24.0095L17.982 25.1972L18.055 25.2339Z" fill="#C3C3EE"/>
<path d="M14.3394 26.7741C14.1599 27.085 13.778 27.2061 13.4563 27.0671L13.3832 27.0303L10.2501 25.2214C10.1442 25.1603 10.0003 25.0185 9.82964 24.8122L9.67704 24.6199C9.6506 24.5854 9.62368 24.5496 9.59631 24.5127L9.42695 24.2773L9.2484 24.016L9.0622 23.7311L8.86993 23.4249C8.83747 23.3722 8.80482 23.3187 8.77201 23.2644L8.57358 22.9304L8.373 22.5806L8.17184 22.2174C8.13835 22.1559 8.1049 22.0939 8.07153 22.0315L7.87243 21.6524C7.83948 21.5885 7.80668 21.5243 7.77404 21.4598L7.58054 21.07L7.39273 20.6758L7.21219 20.2795L7.04047 19.8835C6.98487 19.7517 6.93101 19.6204 6.87914 19.4899L6.79251 19.2666L6.12246 18.7576L4.71229 17.7028L4.45704 17.5054L4.31191 17.3869L4.24894 17.3302L4.18735 17.2693L4.16475 17.2399L4.11331 17.1495L4.05186 17.0333C3.92313 16.6688 4.11429 16.2689 4.47882 16.1402C4.7312 16.0511 5.0005 16.1153 5.18505 16.2842L5.22833 16.3283L5.42396 16.4842L7.47936 18.0279L7.70231 18.2023L7.81752 18.299L7.90727 18.3851L7.92959 18.4136L7.95971 18.4635L8.04265 18.6148C8.54573 19.9733 9.22001 21.3136 9.9606 22.517L10.0804 22.7095L10.3155 23.0744C10.4308 23.2494 10.5424 23.4123 10.6475 23.5599L10.8203 23.7963L10.9432 23.9552L11.0045 24.0308C11.0075 24.0362 11.0044 24.038 10.9809 24.026L14.0832 25.8179C14.418 26.0112 14.5327 26.4393 14.3394 26.7741Z" fill="#C3C3EE"/>
<path d="M16.1 28.0002C16.4866 28.0002 16.8 27.6868 16.8 27.3002C16.8 26.9136 16.4866 26.6002 16.1 26.6002C15.7134 26.6002 15.4 26.9136 15.4 27.3002C15.4 27.6868 15.7134 28.0002 16.1 28.0002Z" fill="#C3C3EE"/>
<path d="M38.0929 29.8633C37.8996 29.5285 38.0143 29.1004 38.3491 28.9071L38.4976 28.8202L38.8022 28.6355L40.0569 27.8412C40.1336 27.7933 40.2101 27.7459 40.287 27.6986L40.7565 27.4135L41.2618 27.1148C41.3505 27.063 41.4419 27.0099 41.5366 26.9553C41.8714 26.762 42.2995 26.8767 42.4928 27.2115C42.6861 27.5463 42.5714 27.9744 42.2366 28.1677L41.7168 28.4712L41.4451 28.634C41.4406 28.6565 41.435 28.679 41.4283 28.7015C41.3511 28.9575 41.2759 29.2018 41.2011 29.4394L40.9769 30.1375L40.5235 31.4989L40.4638 31.6915L40.4204 31.8456L40.3913 31.9682L40.387 31.9904C40.385 32.0005 40.3833 32.0103 40.3817 32.0198L40.3711 32.1078L40.3705 32.1811L40.3782 32.2467C40.3972 32.3545 40.6272 32.5923 40.8724 32.6351C41.2851 32.7071 41.8618 32.3836 42.5782 31.4134L44.1712 29.2081L45.4248 27.4526L46.1754 26.3866L46.689 25.6466C46.7286 25.5891 46.7674 25.5327 46.8054 25.4773C46.9172 25.3141 47.0282 25.0497 47.1359 24.6875L47.2072 24.4315L47.2774 24.1468L47.3464 23.8337L47.414 23.4922L47.4799 23.1227L47.5442 22.7254L47.6066 22.3005C47.6169 22.2274 47.627 22.1531 47.6371 22.0777L47.6964 21.6119L47.7535 21.119C47.7565 21.0919 47.7598 21.0661 47.7641 21.0411L47.7806 20.9674L47.797 20.9189L47.8326 20.8444L47.8655 20.7919L47.9071 20.7359L47.9884 20.643L48.0571 20.5736L48.1848 20.4554L48.4075 20.2659L48.8736 19.8958L49.7925 19.1966L50.7473 18.48C51.0566 18.2481 51.4954 18.3109 51.7272 18.6202C51.9591 18.9296 51.8963 19.3683 51.587 19.6002L50.3338 20.5481L49.678 21.0561L49.3715 21.3004L49.1184 21.5116L49.0472 22.095C49.0358 22.1837 49.0243 22.271 49.0127 22.357L48.9412 22.8574C48.6977 24.4728 48.3988 25.567 48.0159 26.1833L47.9601 26.2689L47.4617 26.9897L46.8865 27.8101L45.8799 29.2273L44.2699 31.4644L43.8197 32.0855C42.7794 33.5574 41.6857 34.1981 40.6318 34.0143C39.7957 33.8685 39.1192 33.1685 38.9995 32.4898C38.9434 32.1719 38.9523 31.9284 39.0574 31.5231L39.1245 31.2845L39.2118 31.0052L39.6228 29.7729L39.5394 29.8257L39.2106 30.0251C39.1568 30.0569 39.1032 30.0883 39.0491 30.1195C38.7143 30.3128 38.2862 30.1981 38.0929 29.8633Z" fill="#C3C3EE"/>
<path d="M45.0289 13.8793L43.2487 14.6648L42.91 14.8054L42.7726 14.8551C42.6467 14.8955 42.5835 14.9117 42.4701 14.8997L42.3951 14.8892C40.9711 14.6482 39.4786 14.5634 38.0723 14.6035L37.8466 14.611L37.415 14.6322L37.016 14.6605C36.9527 14.6658 36.891 14.6713 36.8312 14.677L36.5415 14.7083L36.3434 14.7352L36.2481 14.7504C36.242 14.7503 36.2422 14.7467 36.2644 14.7323L31.85 17.2802C31.5152 17.4735 31.087 17.3588 30.8937 17.024C30.7142 16.7131 30.8003 16.3217 31.0816 16.1126L31.15 16.0677L35.5945 13.5017C35.7334 13.4215 36.026 13.3541 36.4276 13.3031L36.7109 13.2715C36.7607 13.2667 36.8117 13.2621 36.8638 13.2576L37.1901 13.2339L37.5413 13.2155L37.9145 13.2029C37.9784 13.2013 38.043 13.1999 38.1084 13.1988L38.5091 13.1952L38.9243 13.1978L39.3513 13.2071L39.787 13.2231L40.2285 13.2461L40.6728 13.2763L41.117 13.3141L41.5582 13.3596C41.7776 13.3843 41.9947 13.412 42.2079 13.4429L42.4537 13.4804L42.6052 13.4173L44.5404 12.5654L44.7297 12.4855L44.8773 12.4261L44.9735 12.3906L45.0154 12.3767C45.1688 12.3283 45.2321 12.3146 45.401 12.3461C45.781 12.4169 46.0318 12.7824 45.961 13.1624C45.8902 13.5425 45.5247 13.7932 45.1446 13.7224C45.1918 13.7312 45.2212 13.7397 45.2411 13.7466L45.2801 13.7613C45.2935 13.765 45.3037 13.7623 45.3384 13.7489L45.0289 13.8793Z" fill="#C3C3EE"/>
<path d="M34.3 19.6002C34.6866 19.6002 35 19.2868 35 18.9002C35 18.5136 34.6866 18.2002 34.3 18.2002C33.9134 18.2002 33.6 18.5136 33.6 18.9002C33.6 19.2868 33.9134 19.6002 34.3 19.6002Z" fill="#C3C3EE"/>
<path d="M29.3964 19.1154C29.3266 17.8248 28.258 16.7998 26.95 16.7998C25.5969 16.7998 24.5 17.8967 24.5 19.2498V20.5356C24.1818 20.3844 23.8258 20.2998 23.45 20.2998C22.0969 20.2998 21 21.3967 21 22.7498V33.1693L20.5742 32.6693L19.7188 31.6483L19.2841 31.1377L19.0215 30.8406L18.871 30.6782L18.7366 30.5411C18.7154 30.5202 18.6947 30.5002 18.6745 30.4811L18.5586 30.3766C18.5031 30.3291 18.4508 30.2885 18.4 30.2532L18.2999 30.1891C18.2504 30.1601 18.2012 30.1353 18.1507 30.1132L18.0476 30.0721C17.4 29.8363 16.4555 30.0723 15.9112 30.7234C15.2251 31.5442 15.2331 32.8117 15.9876 34.4486L17.0305 36.7739L18.0436 38.997L18.5797 40.1506L18.9548 40.9426L19.0041 41.0401C19.242 41.4872 19.6842 42.0204 20.3367 42.6524L20.6528 42.9512C20.8735 43.1551 21.1142 43.3685 21.3751 43.5919L21.7817 43.9344C21.9222 44.0511 22.0678 44.1703 22.2186 44.2921L22.3996 44.4376L22.3997 46.8999L22.4052 46.9877C22.4484 47.3329 22.7429 47.5999 23.0997 47.5999C23.4863 47.5999 23.7997 47.2865 23.7997 46.8999V43.7608L23.3323 43.3908L22.7648 42.9303L22.4167 42.6391L22.093 42.3609L21.7937 42.0958L21.519 41.8442L21.269 41.6061C21.1897 41.529 21.1146 41.4542 21.0437 41.3818L20.8432 41.1715L20.6677 40.9755L20.5174 40.794C20.3795 40.6198 20.2795 40.4676 20.2177 40.3384L19.9432 39.7602L19.4255 38.6503L18.5741 36.7892L17.1904 33.7095C16.7085 32.604 16.7166 31.9428 16.9853 31.6214C17.145 31.4304 17.4659 31.3502 17.5687 31.3876C17.5781 31.391 17.5899 31.3977 17.6044 31.408L17.6564 31.4499L17.7258 31.5146L17.9217 31.7185L18.2016 32.0315L18.5748 32.4652L19.5086 33.5774L19.8829 34.0185L20.2224 34.4117L20.5429 34.7747L20.8601 35.1247L21.1897 35.4794C21.3624 35.6631 21.611 35.7328 21.8411 35.6856C21.8582 35.6821 21.8751 35.678 21.8917 35.6733C22.1851 35.5899 22.4 35.32 22.4 34.9998V22.7498L22.4048 22.6487C22.4557 22.1162 22.9043 21.6998 23.45 21.6998C24.0299 21.6998 24.5 22.1699 24.5 22.7498V31.4998L24.5047 31.5814C24.5452 31.9296 24.8411 32.1998 25.2 32.1998C25.5866 32.1998 25.9 31.8864 25.9 31.4998V19.2498L25.9048 19.1487C25.9557 18.6162 26.4043 18.1998 26.95 18.1998C27.5299 18.1998 28 18.6699 28 19.2498V31.4998L28.0047 31.5814C28.0452 31.9296 28.3411 32.1998 28.7 32.1998C29.0866 32.1998 29.4 31.8864 29.4 31.4998V21.3292L29.4048 21.2304C29.4555 20.7097 29.9025 20.2998 30.45 20.2998C31.0318 20.2998 31.5 20.7626 31.5 21.3292V31.4998L31.5047 31.5814C31.5452 31.9296 31.8411 32.1998 32.2 32.1998C32.5866 32.1998 32.9 31.8864 32.9 31.4998V24.1292L32.9048 24.0304C32.9555 23.5097 33.4025 23.0998 33.95 23.0998C34.5318 23.0998 35 23.5626 35 24.1292V37.0998L34.9977 37.3035C34.9676 38.5749 34.6439 39.508 33.7158 40.9142C33.6153 41.0665 33.4429 41.2686 33.2001 41.5209L32.9749 41.7494L32.7155 42.0027L32.4564 42.2484L31.499 43.1337L31.1421 43.4703L30.8 43.8099V46.8998L30.8047 46.9814C30.8452 47.3296 31.1411 47.5998 31.5 47.5998L31.5817 47.5951C31.9298 47.5547 32.2 47.2588 32.2 46.8998V44.3952L32.2696 44.3297L33.4148 43.2689L33.697 43.0011L33.9915 42.7133C34.4053 42.3007 34.6959 41.9708 34.8843 41.6854C36.0074 39.9837 36.4 38.7621 36.4 37.0998V24.1292L36.3964 23.9957C36.3265 22.7144 35.2563 21.6998 33.95 21.6998C33.5745 21.6998 33.2184 21.7837 32.9 21.9337V21.3292L32.8964 21.1957C32.8265 19.9144 31.7563 18.8998 30.45 18.8998C30.0733 18.8998 29.7161 18.9842 29.3969 19.1351L29.3964 19.1154Z" fill="#000091"/>
</svg>
