<?xml version="1.0" encoding="UTF-8"?>
<svg id="Calque_1" xmlns="http://www.w3.org/2000/svg" viewBox="0 0 3000 3000">
    <defs>
        <style>
            .cls-1 {
                fill: #fff;
            }

            .cls-2 {
                fill: #e52327;
            }

            .cls-3 {
                fill: #2a327e;
            }

            .cls-4 {
                font-size: 175.4px;
            }

            .cls-4,
            .cls-5,
            .cls-6,
            .cls-7,
            .cls-8,
            .cls-9,
            .cls-10,
            .cls-11,
            .cls-12,
            .cls-13,
            .cls-14,
            .cls-15,
            .cls-16,
            .cls-17,
            .cls-18,
            .cls-19 {
                fill: #f2f2f2;
                font-family: Marianne-Bold, Marianne;
                font-weight: 700;
            }

            .cls-5 {
                font-size: 175.4px;
            }

            .cls-6 {
                font-size: 175.4px;
            }

            .cls-7 {
                font-size: 175.4px;
            }

            .cls-8 {
                font-size: 175.4px;
            }

            .cls-9 {
                font-size: 175.4px;
            }

            .cls-10 {
                font-size: 175.4px;
            }

            .cls-11 {
                font-size: 175.4px;
            }

            .cls-12 {
                font-size: 175.4px;
            }

            .cls-13 {
                font-size: 175.4px;
            }

            .cls-14 {
                font-size: 175.4px;
            }

            .cls-15 {
                font-size: 175.4px;
            }

            .cls-16 {
                font-size: 175.4px;
            }

            .cls-17 {
                font-size: 175.4px;
            }

            .cls-18 {
                font-size: 175.4px;
            }

            .cls-19 {
                font-size: 175.4px;
            }
        </style>
    </defs>
    <path class="cls-2"
        d="m1485.01,218.08c-707.55,0-1281.15,573.97-1281.15,1282.04s573.59,1282.04,1281.15,1282.04l1281.15-1282.04c0-708.07-573.6-1282.04-1281.15-1282.04Z" />
    <path class="cls-2" d="m1485.01,2782.15c707.55,0,1281.15-573.96,1281.15-1282.04l-1281.15,1282.04Z" />
    <path class="cls-3"
        d="m2560.78,803.64L209.95,1625.66c2.92,30.08,6.88,59.85,11.84,89.28l2385.26-834.07c-14.54-26.33-29.98-52.08-46.27-77.24Z" />
    <path class="cls-3"
        d="m2684.77,1049.52L265.9,1895.34c9.08,28.08,19.12,55.72,30.05,82.91l2416.94-845.14c-8.43-28.29-17.82-56.15-28.12-83.58Z" />
    <path class="cls-3"
        d="m2752.87,1314.96L377.79,2145.46c15.23,26.11,31.35,51.63,48.33,76.52l2336.54-817.03c-2.22-30.3-5.5-60.31-9.79-89.99Z" />
    <path class="cls-1"
        d="m2466.47,1498.35c0,539.01-436.65,975.95-975.25,975.95s-975.26-436.94-975.26-975.95,436.61-975.95,975.26-975.95,975.25,436.94,975.25,975.95" />
    <path class="cls-3"
        d="m2098.45,1500.38c0,34.91,27.08,78.42,27.6,102.56-49.11,307.7-315.56,542.85-636.88,542.85-356.2,0-644.97-288.95-644.97-645.41s288.77-645.41,644.97-645.41c312.39,0,572.89,222.23,632.27,517.32,1.48,7.27-6.72,28.16-5.5,35.54-2.96,35.5-17.49,56.43-17.49,92.55" />
    <path class="cls-1"
        d="m714.32,1918.23c-95.95,0-187.62-25.32-232.24-48.82-14.32-7.53-21.77-23.73-18.19-39.53l37.05-162.34c2.44-10.74,9.71-19.74,19.71-24.43,4.8-2.21,9.93-3.32,15.1-3.32,5.57,0,11.18,1.29,16.27,3.91,39.49,20.22,105.99,41.81,174.26,41.81,15.13,0,64.51-1.73,64.51-24.17,0-13.25-27.31-28.23-91.3-50.15-153.48-55.21-231.02-140.94-231.02-254.97,0-75.36,32.4-143.3,91.26-191.27,59.68-48.64,142.52-74.36,239.54-74.36,80.63,0,150.09,13.06,212.31,39.96,16.2,7.01,24.87,24.8,20.4,41.85l-41.4,157.99c-2.66,10.18-9.63,18.64-19.12,23.17-4.87,2.32-10.14,3.51-15.42,3.51-4.98,0-9.97-1.07-14.61-3.14-47.57-21.37-94.8-31.74-144.37-31.74-35.58,0-56.84,9.52-56.84,18.75,0,11.77,48.35,29.97,104.33,51.08l4.32,1.62c145.73,54.21,213.67,135.14,213.67,254.6,0,76.13-31.48,144.33-88.67,191.97-61.23,51.04-150.98,78.01-259.54,78.01" />
    <path class="cls-3"
        d="m799.25,1126.3c87.09,0,150.27,16.35,198.17,37.05l-41.38,158.02c-31.58-14.17-86.02-34.88-158.98-34.88-59.89,0-92.55,21.78-92.55,54.47,0,37.05,39.19,51.22,131.74,86.1,131.75,49.01,190.57,118.76,190.57,221.2,0,126.39-98.02,234.26-312.54,234.26-88.16,0-174.19-22.88-215.59-44.69l37.01-162.34c44.65,22.85,116.54,45.76,190.57,45.76,67.53,0,100.19-22.92,100.19-59.93s-32.66-55.58-115.43-83.92c-124.14-44.69-206.89-112.22-206.89-221.2,0-129.64,109.97-229.91,295.09-229.91m0-71.41c-105.32,0-195.96,28.49-262.09,82.41-67.35,54.87-104.44,132.63-104.44,218.91,0,71.45,26.24,133.78,77.9,185.29,41.92,41.81,99.57,75.54,176.25,103.11.33.11.66.26,1.03.37,3.58,1.22,6.98,2.4,10.18,3.54-51.59-4.65-99.49-21.07-129.79-36.61-10.22-5.21-21.4-7.83-32.59-7.83-10.29,0-20.59,2.22-30.19,6.68-19.96,9.34-34.54,27.34-39.41,48.86l-37.05,162.34c-7.16,31.52,7.71,63.96,36.35,79.05,50,26.35,146.36,52.92,248.88,52.92,117.06,0,214.71-29.82,282.42-86.28,65.47-54.58,101.52-132.48,101.52-219.39,0-68.72-21.22-128.28-63.07-177.1-32.88-38.42-78.31-70.15-138.13-96.54,13.8,4.73,23.95,9.3,29.75,11.89,9.3,4.17,19.3,6.27,29.26,6.27,10.56,0,21.07-2.32,30.82-7.01,18.97-9.04,32.95-26.01,38.27-46.31l41.37-157.99c8.93-34.14-8.38-69.67-40.74-83.66-66.8-28.9-140.9-42.92-226.51-42.92" />
    <path class="cls-1"
        d="m1536.35,1907.33c-13.4,0-25.65-7.49-31.78-19.41l-125.21-244.08c-13.55-26.02-32.81-63.85-53.7-107.43.96,48.05,1.41,99.35,1.41,154.33v180.86c0,19.75-15.98,35.72-35.72,35.72h-179.65c-19.75,0-35.72-15.98-35.72-35.72v-734.42c0-19.71,15.98-35.69,35.72-35.69h231.94c13.36,0,25.57,7.46,31.74,19.3l116.28,225.11c12.11,22,24.8,46.98,37.79,74.1-1.07-34.69-1.59-70.82-1.59-108.46v-174.37c0-19.71,15.98-35.69,35.72-35.69h179.65c19.75,0,35.72,15.98,35.72,35.69v734.42c0,19.75-15.98,35.72-35.72,35.72h-206.88Z" />
    <path class="cls-3"
        d="m1743.24,1137.19v734.42h-206.89l-125.21-244.08c-40.3-77.35-88.2-176.51-123.03-264.78h-4.36c5.42,99.16,7.6,209.2,7.6,328v180.87h-179.65v-734.42h231.94l116.51,225.56c40.26,73.03,82.73,171.08,115.39,257.18h3.29c-10.88-96.99-15.24-199.43-15.24-308.37v-174.37h179.65Zm0-71.41h-179.65c-39.45,0-71.45,32-71.45,71.41v131.93l-85.06-164.7c-12.25-23.73-36.72-38.64-63.44-38.64h-231.94c-39.45,0-71.45,32-71.45,71.41v734.42c0,39.45,32,71.44,71.45,71.44h179.65c39.45,0,71.45-31.99,71.45-71.44v-181.87l110.01,214.49c12.21,23.84,36.76,38.82,63.55,38.82h206.89c39.45,0,71.41-31.99,71.41-71.44v-734.42c0-39.41-31.96-71.41-71.41-71.41" />
    <path class="cls-1"
        d="m2163.47,1919.31c-283.31,0-342.76-207.25-342.76-381.1v-401c0-19.74,15.98-35.72,35.72-35.72h197.06c19.71,0,35.69,15.98,35.69,35.72v417.31c0,137.54,60,137.54,79.71,137.54,39.96,0,80.81-16.31,80.81-137.54v-417.31c0-19.74,15.98-35.72,35.72-35.72h197.07c19.71,0,35.72,15.98,35.72,35.72v405.35c0,242.93-125.99,376.75-354.75,376.75" />
    <path class="cls-3"
        d="m2482.5,1137.19v405.39c0,226.63-113.26,341.03-319.03,341.03s-307.04-110.05-307.04-345.42v-400.99h197.07v417.34c0,111.16,38.12,173.27,115.4,173.27s116.51-56.65,116.51-173.27v-417.34h197.1Zm0-71.41h-197.1c-39.41,0-71.41,32-71.41,71.41v417.34c0,57.13-10.44,81.23-16.68,90.49-3.25,4.8-7.64,11.33-28.42,11.33-17.27,0-22.4-5.68-26.87-12.55-6.38-9.78-17.13-34.43-17.13-89.27v-417.34c0-39.41-31.95-71.41-71.41-71.41h-197.07c-39.45,0-71.44,32-71.44,71.41v400.99c0,134.22,32.62,238.18,96.94,308.99,65.02,71.56,159.76,107.83,281.54,107.83s220.61-36.24,288.48-107.76c67.68-71.29,101.96-173.82,101.96-304.67v-405.39c0-39.41-31.96-71.41-71.41-71.41" />
    <text class="cls-17" transform="translate(694.36 788.4) rotate(-44.8)">
        <tspan x="0" y="0">S</tspan>
    </text><text class="cls-14" transform="translate(768.01 715.4) rotate(-39.25)">
        <tspan x="0" y="0">E</tspan>
    </text><text class="cls-13" transform="translate(847.15 650.1) rotate(-33.32)">
        <tspan x="0" y="0">R</tspan>
    </text><text class="cls-18" transform="translate(940.96 587.75) rotate(-26.87)">
        <tspan x="0" y="0">V</tspan>
    </text><text class="cls-17" transform="translate(1058.98 529.77) rotate(-21.68)">
        <tspan x="0" y="0">I</tspan>
    </text><text class="cls-13" transform="translate(1115.96 505.48) rotate(-16.57)">
        <tspan x="0" y="0">C</tspan>
    </text><text class="cls-10" transform="translate(1240.73 469.14) rotate(-10.44)">
        <tspan x="0" y="0">E</tspan>
    </text><text class="cls-13" transform="translate(1390.19 443.78) rotate(-1.09)">
        <tspan x="0" y="0">N</tspan>
    </text><text class="cls-19" transform="translate(1537.66 441.51) rotate(6.4)">
        <tspan x="0" y="0">A</tspan>
    </text><text class="cls-11" transform="translate(1655.91 454.61) rotate(12.29)">
        <tspan x="0" y="0">T</tspan>
    </text><text class="cls-18" transform="translate(1765.66 479.69) rotate(16.97)">
        <tspan x="0" y="0">I</tspan>
    </text><text class="cls-11" transform="translate(1825.2 495.64) rotate(22.52)">
        <tspan x="0" y="0">O</tspan>
    </text><text class="cls-15" transform="translate(1959.13 551.1) rotate(30.29)">
        <tspan x="0" y="0">N</tspan>
    </text><text class="cls-18" transform="translate(2086.26 625.94) rotate(37.69)">
        <tspan x="0" y="0">A</tspan>
    </text><text class="cls-8" transform="translate(2189.48 706.82) rotate(43.74)">
        <tspan x="0" y="0">L</tspan>
    </text><text class="cls-15" transform="translate(970.35 2587.98) rotate(22.51)">
        <tspan x="0" y="0">U</tspan>
    </text><text class="cls-7" transform="translate(1106.82 2643.86) rotate(15.01)">
        <tspan x="0" y="0">N</tspan>
    </text><text class="cls-6" transform="translate(1266.24 2683.53) rotate(9.2)">
        <tspan x="0" y="0">I</tspan>
    </text><text class="cls-5" transform="translate(1342.22 2696.78) rotate(3.81)">
        <tspan x="0" y="0">V</tspan>
    </text><text class="cls-5" transform="translate(1490.07 2704.74) rotate(-2.64)">
        <tspan x="0" y="0">E</tspan>
    </text><text class="cls-9" transform="translate(1609.07 2698.76) rotate(-8.7)">
        <tspan x="0" y="0">R</tspan>
    </text><text class="cls-4" transform="translate(1741.02 2677.31) rotate(-14.67)">
        <tspan x="0" y="0">S</tspan>
    </text><text class="cls-16" transform="translate(1856.36 2646.34) rotate(-20.31)">
        <tspan x="0" y="0">E</tspan>
    </text><text class="cls-12" transform="translate(1966.98 2604.39) rotate(-25.82)">
        <tspan x="0" y="0">L</tspan>
    </text>
</svg>