<?xml version="1.0" encoding="UTF-8" standalone="no"?>
<!-- Created with Inkscape (http://www.inkscape.org/) -->

<svg version="1.1" id="svg2" width="3884.6667" height="3418.76" viewBox="0 0 3884.6667 3418.76"
   sodipodi:docname="SNU LOGO CMJN VDEF (2).eps" xmlns:inkscape="http://www.inkscape.org/namespaces/inkscape"
   xmlns:sodipodi="http://sodipodi.sourceforge.net/DTD/sodipodi-0.dtd" xmlns="http://www.w3.org/2000/svg"
   xmlns:svg="http://www.w3.org/2000/svg">
   <defs id="defs6">
      <clipPath clipPathUnits="userSpaceOnUse" id="clipPath24">
         <path d="M 0,977.5 H 29135 V 24412.3 H 0 Z" id="path22" />
      </clipPath>
      <clipPath clipPathUnits="userSpaceOnUse" id="clipPath50">
         <path d="M 0,6256.6 25354.8,977.5 29135,19133.3 3780.16,24412.3 0,6256.6" id="path48" />
      </clipPath>
   </defs>
   <sodipodi:namedview id="namedview4" pagecolor="#ffffff" bordercolor="#000000" borderopacity="0.25"
      inkscape:showpageshadow="2" inkscape:pageopacity="0.0" inkscape:pagecheckerboard="0"
      inkscape:deskcolor="#d1d1d1" />
   <g id="g8" inkscape:groupmode="layer" inkscape:label="ink_ext_XXXXXX"
      transform="matrix(1.3333333,0,0,-1.3333333,0,3418.76)">
      <g id="g10" transform="scale(0.1)">
         <path
            d="M 14481.1,0 C 7405.6,0 1669.67,5739.6 1669.67,12820.3 c 0,7080.7 5735.93,12820.4 12811.43,12820.4 7075.6,0 12811.5,-5739.7 12811.5,-12820.4 L 14481.1,0"
            style="fill:#ea1c24;fill-opacity:1;fill-rule:nonzero;stroke:none" id="path12" />
         <path d="M 27292.6,12820.3 C 27292.6,5739.6 21556.7,0 14481.1,0 l 12811.5,12820.3"
            style="fill:#ed1f24;fill-opacity:1;fill-rule:nonzero;stroke:none" id="path14" />
         <path
            d="m 24295.8,12838 c 0,-5390.1 -4366.5,-9759.5 -9752.6,-9759.5 -5386.47,0 -9752.56,4369.4 -9752.56,9759.5 0,5390.1 4366.09,9759.6 9752.56,9759.6 5386.1,0 9752.6,-4369.5 9752.6,-9759.6"
            style="fill:#ffffff;fill-opacity:1;fill-rule:nonzero;stroke:none" id="path16" />
         <g id="g18">
            <g id="g20" clip-path="url(#clipPath24)">
               <path d="m 25708.5,19016 c -145.3,263 -299.5,520.3 -462.7,772.4 l 277.2,96.9 291,-832.4 -105.5,-36.9"
                  style="fill:#ffffff;fill-opacity:1;fill-rule:nonzero;stroke:none" id="path26" />
               <path d="m 26769.4,16494.6 c -84.6,281.8 -179,560.9 -282.4,835.4 l 168.3,58.8 291,-832.4 -176.9,-61.8"
                  style="fill:#ffffff;fill-opacity:1;fill-rule:nonzero;stroke:none" id="path28" />
               <path d="m 27272.1,13777.9 c -22.4,302.1 -55.6,602.1 -99.2,899.5 l 614.6,214.9 291.1,-832.4 -806.5,-282"
                  style="fill:#ffffff;fill-opacity:1;fill-rule:nonzero;stroke:none" id="path30" />
               <path
                  d="m 1347.35,10497.5 -291.05,832.4 h 0.01 l 673.94,235.7 c 29.18,-300.5 68.82,-598.8 118.37,-892.8 l -501.27,-175.3"
                  style="fill:#ffffff;fill-opacity:1;fill-rule:nonzero;stroke:none" id="path32" />
               <path
                  d="m 1848.62,10672.8 c -49.55,294 -89.19,592.3 -118.37,892.8 l 7.71,2.7 c 29.11,-299.9 68.79,-597.8 118.66,-892.7 l -8,-2.8"
                  style="fill:#e91c24;fill-opacity:1;fill-rule:nonzero;stroke:none" id="path34" />
               <path
                  d="m 2479.65,8001 -291.06,832.4 101.17,35.4 c 90.73,-280.5 191.13,-557.5 300.28,-829.2 L 2479.65,8001"
                  style="fill:#ffffff;fill-opacity:1;fill-rule:nonzero;stroke:none" id="path36" />
               <path
                  d="m 2590.04,8039.6 c -109.15,271.7 -209.55,548.7 -300.28,829.2 l 8.99,3.1 c 90.77,-280.4 190.82,-556.5 300.32,-829.1 l -9.03,-3.2"
                  style="fill:#e91c24;fill-opacity:1;fill-rule:nonzero;stroke:none" id="path38" />
               <path
                  d="m 3611.97,5504.5 h -0.02 l -291.06,832.4 87.45,30.6 c 152.27,-261.1 313.47,-516.3 483.23,-765.2 l -279.6,-97.8"
                  style="fill:#ffffff;fill-opacity:1;fill-rule:nonzero;stroke:none" id="path40" />
               <path
                  d="m 3891.57,5602.3 c -169.76,248.9 -330.96,504.1 -483.23,765.2 l 7.59,2.6 c 151.77,-261 312.19,-515.9 481.86,-765.6 l -6.22,-2.2"
                  style="fill:#e91c24;fill-opacity:1;fill-rule:nonzero;stroke:none" id="path42" />
            </g>
         </g>
         <g id="g44">
            <g id="g46" clip-path="url(#clipPath50)">
               <path
                  d="m 25701.4,19013.5 c -145.6,263.5 -299.7,520.6 -462.8,772.4 l 7.2,2.5 c 163.2,-252.1 317.4,-509.4 462.7,-772.4 l -7.1,-2.5"
                  style="fill:#283a7f;fill-opacity:1;fill-rule:nonzero;stroke:none" id="path52" />
               <path
                  d="m 22820.5,18006.2 c -162,258.5 -336,509.4 -521.5,751.8 l 2939.6,1027.9 c 163.1,-251.8 317.2,-508.9 462.8,-772.4 l -2880.9,-1007.3"
                  style="fill:#283a7f;fill-opacity:1;fill-rule:nonzero;stroke:none" id="path54" />
               <path
                  d="m 26759.8,16491.2 c -84.4,282.8 -178.2,561.6 -281.1,835.9 l 8.3,2.9 c 103.4,-274.5 197.8,-553.6 282.4,-835.4 l -9.6,-3.4"
                  style="fill:#283a7f;fill-opacity:1;fill-rule:nonzero;stroke:none" id="path56" />
               <path
                  d="m 23936.8,15504.1 c -81.2,283.2 -175.1,562.4 -281,835.9 l 2822.9,987.1 c 102.9,-274.3 196.7,-553.1 281.1,-835.9 l -2823,-987.1"
                  style="fill:#283a7f;fill-opacity:1;fill-rule:nonzero;stroke:none" id="path58" />
               <path
                  d="m 27257.8,13772.9 c -22.2,303.3 -55,602.8 -97.9,899.9 l 13,4.6 c 43.6,-297.4 76.8,-597.4 99.2,-899.5 l -14.3,-5"
                  style="fill:#283a7f;fill-opacity:1;fill-rule:nonzero;stroke:none" id="path60" />
               <path
                  d="m 24311.6,12742.7 c 2.8,309.6 -9.1,617.2 -35.3,921.8 l 2883.6,1008.3 c 42.9,-297.1 75.7,-596.6 97.9,-899.9 l -2946.2,-1030.2"
                  style="fill:#283a7f;fill-opacity:1;fill-rule:nonzero;stroke:none" id="path62" />
               <path
                  d="m 1856.62,10675.6 c -49.87,294.9 -89.55,592.8 -118.66,892.7 l 3054.72,1068.1 c 6.24,-307.7 26.77,-612.7 60.84,-912.8 l -2996.9,-1048"
                  style="fill:#283a7f;fill-opacity:1;fill-rule:nonzero;stroke:none" id="path64" />
               <path
                  d="m 4853.52,11723.6 c -34.07,300.1 -54.6,605.1 -60.84,912.8 l 11.15,3.9 c 5.29,-307.1 25.09,-611.9 58.93,-913.5 l -9.24,-3.2"
                  style="fill:#283a7f;fill-opacity:1;fill-rule:nonzero;stroke:none" id="path66" />
               <path
                  d="m 2599.07,8042.8 c -109.5,272.6 -209.55,548.7 -300.32,829.1 l 2941.37,1028.6 c 88.77,-281.9 189.95,-558.1 302.96,-828.3 L 2599.07,8042.8"
                  style="fill:#283a7f;fill-opacity:1;fill-rule:nonzero;stroke:none" id="path68" />
               <path
                  d="m 5543.08,9072.2 c -113.01,270.2 -214.19,546.4 -302.96,828.3 l 7.35,2.5 c 88.14,-281 189.01,-557.9 301.67,-828.6 l -6.06,-2.2"
                  style="fill:#283a7f;fill-opacity:1;fill-rule:nonzero;stroke:none" id="path70" />
               <path
                  d="m 3897.79,5604.5 c -169.67,249.7 -330.09,504.6 -481.86,765.6 l 3011.99,1053.3 c 73.39,-110 149.05,-218.5 226.71,-325.2 102.65,-142.1 209.26,-281.6 319.46,-418 L 3897.79,5604.5"
                  style="fill:#283a7f;fill-opacity:1;fill-rule:nonzero;stroke:none" id="path72" />
               <path
                  d="m 6654.63,7098.2 c -77.66,106.7 -153.32,215.2 -226.71,325.2 l 1.31,0.4 c 72.92,-110 148.1,-218.6 225.4,-325.6"
                  style="fill:#283a7f;fill-opacity:1;fill-rule:nonzero;stroke:none" id="path74" />
               <path
                  d="m 22818.1,18005.3 c -162,259.3 -335.5,510 -520.4,752.2 l 1.3,0.5 c 185.5,-242.4 359.5,-493.3 521.5,-751.8 l -2.4,-0.9"
                  style="fill:#e91c24;fill-opacity:1;fill-rule:nonzero;stroke:none" id="path76" />
               <path
                  d="m 4862.76,11726.8 c -33.84,301.6 -53.64,606.4 -58.93,913.5 l 17493.87,6117.2 c 184.9,-242.2 358.4,-492.9 520.4,-752.2 L 4862.76,11726.8"
                  style="fill:#ffffff;fill-opacity:1;fill-rule:nonzero;stroke:none" id="path78" />
               <path
                  d="m 23928.3,15501.1 c -80.5,284.4 -173.5,563.5 -278.4,836.8 l 5.9,2.1 c 105.9,-273.5 199.8,-552.7 281,-835.9 l -8.5,-3"
                  style="fill:#e91c24;fill-opacity:1;fill-rule:nonzero;stroke:none" id="path80" />
               <path
                  d="M 5549.14,9074.4 C 5436.48,9345.1 5335.61,9622 5247.47,9903 l 18402.43,6434.9 c 104.9,-273.3 197.9,-552.4 278.4,-836.8 L 5549.14,9074.4"
                  style="fill:#ffffff;fill-opacity:1;fill-rule:nonzero;stroke:none" id="path82" />
               <path
                  d="m 6974.09,6680.2 c -110.2,136.4 -216.81,275.9 -319.46,418 103.38,-142 210.6,-281.3 321.3,-417.4 l -1.84,-0.6 M 24295.2,12737 c 0.4,33.8 0.6,67.1 0.6,101 0,276.7 -11.5,550.5 -34.1,821.4 l 14.6,5.1 c 26.2,-304.6 38.1,-612.2 35.3,-921.8 l -16.4,-5.7"
                  style="fill:#e91c24;fill-opacity:1;fill-rule:nonzero;stroke:none" id="path84" />
               <path
                  d="m 6975.93,6680.8 c -110.7,136.1 -217.92,275.4 -321.3,417.4 -77.3,107 -152.48,215.6 -225.4,325.6 l 17832.47,6235.6 c 22.6,-270.9 34.1,-544.7 34.1,-821.4 0,-33.9 -0.2,-67.2 -0.6,-101 L 6975.93,6680.8"
                  style="fill:#ffffff;fill-opacity:1;fill-rule:nonzero;stroke:none" id="path86" />
            </g>
         </g>
         <path
            d="m 20615.5,12817.7 c 0,-349.1 270.9,-784.2 276,-1025.6 -491.1,-3077 -3155.6,-5428.5 -6368.8,-5428.5 -3562,0 -6449.69,2889.5 -6449.69,6454.1 0,3564.5 2887.69,6454.1 6449.69,6454.1 3123.9,0 5728.9,-2222.3 6322.7,-5173.2 14.8,-72.7 -67.2,-281.6 -55,-355.3 -29.5,-355.1 -174.9,-564.3 -174.9,-925.6"
            style="fill:#283a7f;fill-opacity:1;fill-rule:nonzero;stroke:none" id="path88" />
         <path
            d="m 6774.24,8639.1 c -959.53,0 -1876.21,253.2 -2322.4,488.3 -143.17,75.2 -217.72,237.3 -181.89,395.2 l 370.48,1623.4 c 24.39,107.4 97.09,197.4 197.07,244.3 48.01,22.1 99.29,33.2 150.95,33.2 55.71,0 111.85,-12.9 162.74,-39.1 394.91,-202.2 1059.89,-418.1 1742.6,-418.1 151.29,0 645.06,17.3 645.06,241.7 0,132.5 -273.08,282.3 -912.98,501.5 -1534.82,552.1 -2310.19,1409.4 -2310.19,2549.7 0,753.6 324.02,1433 912.64,1912.7 596.76,486.4 1425.25,743.6 2395.41,743.6 806.34,0 1500.87,-130.6 2123.09,-399.6 161.97,-70.2 248.7,-248 204.04,-418.5 l -414.01,-1579.9 c -26.58,-101.8 -96.32,-186.3 -191.22,-231.7 -48.69,-23.3 -101.43,-35.1 -154.22,-35.1 -49.81,0 -99.67,10.7 -146.13,31.4 -475.7,213.6 -948.05,317.4 -1443.66,317.4 -355.77,0 -568.37,-95.3 -568.37,-187.5 0,-117.8 483.49,-299.7 1043.29,-510.8 l 43.19,-16.2 c 1457.34,-542.1 2136.67,-1351.4 2136.67,-2546 0,-761.3 -314.74,-1443.3 -886.72,-1919.7 C 8757.4,8908.9 7859.9,8639.1 6774.24,8639.1"
            style="fill:#ffffff;fill-opacity:1;fill-rule:nonzero;stroke:none" id="path90" />
         <path
            d="m 7623.58,17272.6 c -1053.22,0 -1959.63,-284.9 -2620.91,-824.1 -673.5,-548.7 -1044.36,-1326.3 -1044.36,-2189.1 0,-714.5 262.37,-1337.8 779.02,-1853 419.22,-418.1 995.67,-755.4 1762.52,-1031 3.31,-1.2 6.62,-2.7 10.32,-3.7 35.79,-12.2 69.78,-24 101.83,-35.5 -515.88,46.5 -994.89,210.8 -1297.87,366.1 -102.21,52.1 -214.02,78.3 -325.87,78.3 -102.94,0 -205.93,-22.2 -301.86,-66.8 -199.65,-93.4 -345.4,-273.5 -394.14,-488.7 L 3921.79,9601.8 c -71.63,-315.2 77.09,-639.6 363.46,-790.5 500.05,-263.5 1463.58,-529.2 2488.8,-529.2 1170.58,0 2147.06,298.2 2824.21,862.8 654.74,545.8 1015.24,1324.8 1015.24,2193.9 0,687.2 -212.2,1282.8 -630.69,1771 -328.79,384.2 -783.07,701.6 -1381.33,965.5 138.05,-47.3 239.53,-93 297.47,-118.9 92.97,-41.7 192.99,-62.7 292.62,-62.7 105.56,0 210.75,23.2 308.18,70.1 189.67,90.4 329.52,260.1 382.69,463.1 l 413.66,1579.9 c 89.3,341.4 -83.7,696.7 -407.37,836.6 -668,288.9 -1408.99,429.2 -2265.15,429.2 m 0,-714.1 c 870.91,0 1502.68,-163.5 1981.74,-370.5 l -413.75,-1580.3 c -315.85,141.7 -860.2,348.8 -1589.8,348.8 -598.9,0 -925.5,-217.8 -925.5,-544.7 0,-370.5 391.9,-512.2 1317.44,-861 1317.49,-490 1905.73,-1187.6 1905.73,-2212 0,-1263.9 -980.18,-2342.6 -3125.39,-2342.6 -881.62,0 -1741.87,228.8 -2155.92,446.9 l 370.13,1623.4 c 446.53,-228.5 1165.42,-457.6 1905.72,-457.6 675.31,0 1001.91,229.1 1001.91,599.3 0,359.8 -326.6,555.8 -1154.32,839.2 -1241.43,446.8 -2068.85,1122.2 -2068.85,2212 0,1296.4 1099.73,2299.1 2950.86,2299.1"
            style="fill:#283a7f;fill-opacity:1;fill-rule:nonzero;stroke:none" id="path92" />
         <path
            d="m 14994.5,8748.2 c -134,0 -256.5,74.9 -317.8,194.1 l -1252.1,2440.8 c -135.4,260.1 -328.1,638.4 -537,1074.3 9.6,-480.6 14.1,-993.5 14.1,-1543.4 V 9105.4 c 0,-197.5 -159.8,-357.2 -357.2,-357.2 H 10748 c -197.5,0 -357.3,159.7 -357.3,357.2 v 7344.2 c 0,197 159.8,356.9 357.3,356.9 h 2319.4 c 133.5,0 255.7,-74.6 317.3,-193.1 l 1162.9,-2251.1 c 121,-219.9 248,-469.8 377.9,-741 -10.7,346.9 -15.9,708.2 -15.9,1084.6 v 1743.7 c 0,197 159.8,356.9 357.2,356.9 h 1796.5 c 197.5,0 357.2,-159.9 357.2,-356.9 V 9105.4 c 0,-197.5 -159.7,-357.2 -357.2,-357.2 h -2068.8"
            style="fill:#ffffff;fill-opacity:1;fill-rule:nonzero;stroke:none" id="path94" />
         <path
            d="m 17063.4,17163.7 h -1796.5 c -394.5,0 -714.5,-320 -714.5,-714.1 v -1319.3 l -850.6,1647 c -122.5,237.3 -367.2,386.4 -634.4,386.4 h -2319.3 c -394.5,0 -714.5,-320 -714.5,-714.1 V 9105.4 c 0,-394.5 320,-714.4 714.5,-714.4 h 1796.4 c 394.5,0 714.5,319.9 714.5,714.4 v 1808.6 10 l 1100.1,-2144.8 c 122.1,-238.4 367.5,-388.2 635.4,-388.2 h 2068.9 c 394.5,0 714.1,319.9 714.1,714.4 v 7344.2 c 0,394.1 -319.6,714.1 -714.1,714.1 m 0,-714.1 V 9105.4 h -2068.9 l -1252.1,2440.8 c -403,773.5 -882,1765.1 -1230.3,2647.8 h -43.6 c 54.2,-991.5 76,-2092 76,-3280 V 9105.4 h -1796.4 v 7344.2 h 2319.3 L 14232.5,14194 c 402.6,-730.3 827.4,-1710.8 1153.9,-2571.8 h 32.9 c -108.8,969.9 -152.4,1994.3 -152.4,3083.7 v 1743.7 h 1796.5"
            style="fill:#283a7f;fill-opacity:1;fill-rule:nonzero;stroke:none" id="path96" />
         <path
            d="m 21265.7,8628.4 c -2833.1,0 -3427.6,2072.5 -3427.6,3811 v 4010 c 0,197.4 159.7,357.2 357.2,357.2 h 1970.6 c 197.1,0 356.9,-159.8 356.9,-357.2 v -4173.1 c 0,-1375.4 600,-1375.4 797.1,-1375.4 399.7,0 808.2,163.1 808.2,1375.4 v 4173.1 c 0,197.4 159.8,357.2 357.2,357.2 H 24456 c 197.1,0 357.2,-159.8 357.2,-357.2 v -4053.5 c 0,-2429.4 -1259.9,-3767.5 -3547.5,-3767.5"
            style="fill:#ffffff;fill-opacity:1;fill-rule:nonzero;stroke:none" id="path98" />
         <path
            d="m 24456,17163.7 h -1971 c -394.1,0 -714.1,-320 -714.1,-714.1 v -4173.4 c 0,-571.3 -104.5,-812.3 -166.8,-904.9 -32.5,-48 -76.4,-113.3 -284.2,-113.3 -172.7,0 -224,56.8 -268.6,125.5 -63.9,97.7 -171.3,344.3 -171.3,892.7 v 4173.4 c 0,394.1 -319.5,714.1 -714,714.1 h -1970.7 c -394.5,0 -714.4,-320 -714.4,-714.1 v -4010 c 0,-1342.2 326.2,-2381.7 969.4,-3089.9 650.2,-715.6 1597.6,-1078.3 2815.4,-1078.3 1235.5,0 2206.1,362.3 2884.8,1077.6 676.8,712.9 1019.6,1738.1 1019.6,3046.7 v 4053.9 c 0,394.1 -319.6,714.1 -714.1,714.1 m 0,-714.1 v -4053.9 c 0,-2266.2 -1132.6,-3410.2 -3190.3,-3410.2 -2003.5,0 -3070.4,1100.4 -3070.4,3454.1 v 4010 H 20166 v -4173.4 c 0,-1111.6 381.2,-1732.7 1153.9,-1732.7 784.3,0 1165.1,566.5 1165.1,1732.7 v 4173.4 h 1971"
            style="fill:#283a7f;fill-opacity:1;fill-rule:nonzero;stroke:none" id="path100" />
         <path
            d="m 6515.39,20353.2 c 119.01,-15.3 228.25,14.1 299.2,84.5 69.7,69.2 74.95,148.6 11.92,212.1 -154.48,155.6 -518.17,-274.8 -806.12,15.3 -137.19,138.1 -137.62,365.1 27.93,529.5 130.69,129.7 289.6,171.3 450.78,155.9 l -14.51,-244.3 c -116.53,15.3 -215.81,0.7 -281.78,-64.8 -60.99,-60.5 -61.27,-139.9 -10.61,-190.9 154.49,-155.6 516.95,276 809.84,-19 158.16,-164.3 130.07,-390 -29.25,-548.1 -146.87,-145.9 -299.59,-191.2 -468.2,-175.7 l 10.8,245.5"
            style="fill:#f1f1ef;fill-opacity:1;fill-rule:nonzero;stroke:none" id="path102" />
         <path
            d="m 6674.2,21732.6 554.18,452.8 134.29,-164.4 -361.3,-295.2 179.78,-220 306.98,250.8 134.28,-164.4 -306.97,-250.8 194.21,-237.7 361.3,295.2 134.29,-164.3 -554.18,-452.8 -776.86,950.8"
            style="fill:#f1f1ef;fill-opacity:1;fill-rule:nonzero;stroke:none" id="path104" />
         <path
            d="m 7903.87,22405.2 168.6,-256.5 117.25,77 c 87.95,57.8 108.42,138.5 53.51,222 -51.06,77.7 -134.15,92.3 -222.1,34.5 z m -324.7,40.5 313.67,206.2 c 225.73,148.3 441.08,124.1 566.32,-66.5 80.92,-123.1 81.51,-254.9 10.2,-373.2 l 621.11,-242.4 -249.18,-163.8 -545.25,235.6 -107,-70.3 272.63,-414.8 -208.14,-136.8 -674.36,1026"
            style="fill:#f1f1ef;fill-opacity:1;fill-rule:nonzero;stroke:none" id="path106" />
         <path
            d="m 8745.46,23170.9 757.52,-691.8 -109.77,1020 236.26,119.7 140.32,-1305.3 -291.02,-147.5 -969.57,885.1 236.26,119.8"
            style="fill:#f1f1ef;fill-opacity:1;fill-rule:nonzero;stroke:none" id="path108" />
         <path d="m 9935.16,23731.5 231.44,92 453.6,-1140.9 -231.4,-92.1 -453.64,1141"
            style="fill:#f1f1ef;fill-opacity:1;fill-rule:nonzero;stroke:none" id="path110" />
         <path
            d="m 11691.4,23417.2 231.3,-88.5 c -64.1,-178.3 -210.9,-324.5 -424.4,-388 -371.5,-110.6 -710.4,99.7 -810.5,435.9 -100,336.2 68.8,697.6 440.3,808.1 213.5,63.6 416.9,19.8 567,-91.1 l -144.8,-202.3 c -95.8,75.8 -221.2,109.9 -355.7,69.8 -221.9,-66 -328.4,-286.2 -261.3,-511.4 67,-225.3 276.6,-351.4 498.5,-285.4 134.5,40 220.9,137.1 259.6,252.9"
            style="fill:#f1f1ef;fill-opacity:1;fill-rule:nonzero;stroke:none" id="path112" />
         <path
            d="m 11993.5,24370.3 703.8,129.7 38.4,-208.7 -458.8,-84.6 51.5,-279.5 389.8,71.9 38.5,-208.7 -389.8,-71.9 55.6,-301.8 458.8,84.5 38.5,-208.7 -703.8,-129.7 -222.5,1207.5"
            style="fill:#f1f1ef;fill-opacity:1;fill-rule:nonzero;stroke:none" id="path114" />
         <path
            d="m 13690.2,24614.7 319.1,6.1 565.7,-868.1 -16.8,878.6 249.1,4.7 23.4,-1227.5 -319.2,-6.1 -565.7,871.6 16.8,-882.1 -249,-4.8 -23.4,1227.6"
            style="fill:#f1f1ef;fill-opacity:1;fill-rule:nonzero;stroke:none" id="path116" />
         <path
            d="m 15884.4,23842.8 -115.9,477.2 -218.8,-439.7 z m -251.8,728.9 324.2,-36.3 325,-1272 -263.2,29.5 -81.2,330.4 -488,54.7 -152.4,-304.1 -263.2,29.5 598.8,1168.3"
            style="fill:#f1f1ef;fill-opacity:1;fill-rule:nonzero;stroke:none" id="path118" />
         <path
            d="m 16504.6,24463.5 983.7,-214.3 -48.1,-221.1 -370.2,80.7 -213.2,-978.6 -243.4,53 213.2,978.6 -370.2,80.6 48.2,221.1"
            style="fill:#f1f1ef;fill-opacity:1;fill-rule:nonzero;stroke:none" id="path120" />
         <path d="m 17818.9,24146.1 238.2,-72.7 -358.4,-1174.3 -238.2,72.7 358.4,1174.3"
            style="fill:#f1f1ef;fill-opacity:1;fill-rule:nonzero;stroke:none" id="path122" />
         <path
            d="m 19155.1,23002.3 c 90,217.2 6.9,447.2 -205.4,535.2 -213.8,88.6 -435.3,-15.1 -525.3,-232.2 -90,-217.2 -6.9,-447.2 207,-535.8 212.2,-88 433.7,15.7 523.7,232.8 z m 236.6,-98 c -134.4,-324.1 -493.2,-498.1 -849.7,-350.3 -358,148.4 -488.5,525.3 -354.2,849.3 134.3,324.1 493.2,498.1 851.3,349.7 356.4,-147.8 486.9,-524.7 352.6,-848.7"
            style="fill:#f1f1ef;fill-opacity:1;fill-rule:nonzero;stroke:none" id="path124" />
         <path
            d="m 19997.7,23279.5 275.6,-161 30.8,-1035.7 443.3,758.8 215,-125.6 -619.3,-1060.2 -275.6,161 -29.1,1038.7 -445,-761.8 -215,125.7 619.3,1060.1"
            style="fill:#f1f1ef;fill-opacity:1;fill-rule:nonzero;stroke:none" id="path126" />
         <path
            d="m 21469.5,21479.7 148.8,468 -415.3,-262.1 z m 163.4,753.7 258.2,-199.4 -382.9,-1255.8 -209.5,161.9 102.1,324.5 -388.6,300.2 -288.2,-180.7 -209.6,161.9 1118.5,687.4"
            style="fill:#f1f1ef;fill-opacity:1;fill-rule:nonzero;stroke:none" id="path128" />
         <path d="m 22505.3,21515.4 179.9,-172.2 -692.5,-723.6 337.1,-322.6 -156.4,-163.4 -517.1,494.8 849,887"
            style="fill:#f1f1ef;fill-opacity:1;fill-rule:nonzero;stroke:none" id="path130" />
         <path
            d="m 10627.8,2734.8 230.1,-95.4 -286.1,-690.2 c -123.6,-298.2 -372.4,-403.9 -657.62,-285.7 -283.57,117.5 -384.68,368.3 -261.11,666.4 l 286.09,690.3 230.04,-95.4 -294.11,-709.7 c -63.13,-152.3 -14.2,-277 130.01,-336.8 141,-58.4 265.4,-5.5 328.5,146.8 l 294.2,709.7"
            style="fill:#f1f1ef;fill-opacity:1;fill-rule:nonzero;stroke:none" id="path132" />
         <path
            d="m 11191.7,2522 308.4,-82.7 302.6,-990.9 227.6,848.8 240.6,-64.6 -318,-1185.9 -308.3,82.7 -301.8,994.4 -228.5,-852.2 -240.5,64.5 317.9,1185.9"
            style="fill:#f1f1ef;fill-opacity:1;fill-rule:nonzero;stroke:none" id="path134" />
         <path d="m 12668.1,2169.3 245.9,-39.8 -196.3,-1212 -245.9,39.801 196.3,1211.999"
            style="fill:#f1f1ef;fill-opacity:1;fill-rule:nonzero;stroke:none" id="path136" />
         <path
            d="m 13425.3,2059.4 298.6,-981.4 425.9,933.2 264.3,-17.6 -545.3,-1194.198 -325.5,21.602 L 13161,2077 l 264.3,-17.6"
            style="fill:#f1f1ef;fill-opacity:1;fill-rule:nonzero;stroke:none" id="path138" />
         <path
            d="m 14655.6,2008.9 714.9,33 9.7,-212 -466,-21.5 13.1,-283.8 396,18.3 9.8,-212.1 -396,-18.2 14.1,-306.7 466.1,21.6 9.8,-211.996 -714.9,-33.004 -56.6,1226.4"
            style="fill:#f1f1ef;fill-opacity:1;fill-rule:nonzero;stroke:none" id="path140" />
         <path
            d="m 15992.9,1902.8 46.5,-303.4 138.7,21.2 c 104,15.9 156.2,80.7 141.1,179.5 -14.1,91.9 -83.5,139.8 -187.5,123.9 z m -278.3,172.1 371.1,56.8 c 267,40.9 452.7,-70.9 487.1,-296.3 22.3,-145.7 -32,-265.8 -146.1,-343.6 l 463.7,-479.1 -294.8,-45.098 -397.5,441.298 -126.6,-19.3 75.1,-490.698 -246.2,-37.699 -185.8,1213.697"
            style="fill:#f1f1ef;fill-opacity:1;fill-rule:nonzero;stroke:none" id="path142" />
         <path
            d="m 17198.6,1437.7 c 95.3,-73 204.5,-102.4 301.2,-77.1 95,24.9 139.4,90.9 116.7,177.4 -55.5,212.1 -586,22.5 -689.5,417.9 -49.3,188.3 64.2,384.8 289.9,443.9 178.2,46.7 336.5,2.9 468.1,-91.4 l -135.1,-204 c -93.1,71.7 -186.3,109 -276.2,85.4 -83.2,-21.7 -123.2,-90.2 -105,-159.8 55.5,-212.1 585.6,-20.8 690.9,-422.9 54.3,-221.5 -83.2,-402.5 -300.4,-459.4 -200.2,-52.4 -355.1,-15 -493.2,83.1 l 132.6,206.9"
            style="fill:#f1f1ef;fill-opacity:1;fill-rule:nonzero;stroke:none" id="path144" />
         <path
            d="m 17937.9,2572.3 671.2,248.4 73.6,-199.1 -437.5,-161.9 98.6,-266.5 371.7,137.6 73.7,-199 -371.7,-137.6 106.5,-287.9 437.6,161.9 73.6,-199 -671.1,-248.4 -426.2,1151.5"
            style="fill:#f1f1ef;fill-opacity:1;fill-rule:nonzero;stroke:none" id="path146" />
         <path d="m 18928.7,2961.5 224.2,108.5 436.3,-901.6 419.9,203.2 98.6,-203.6 -644.2,-311.7 -534.8,1105.2"
            style="fill:#f1f1ef;fill-opacity:1;fill-rule:nonzero;stroke:none" id="path148" />
      </g>
   </g>
</svg>