<?xml version="1.0" encoding="UTF-8"?>
<svg id="Calque_1" xmlns="http://www.w3.org/2000/svg" viewBox="0 0 3000 3000">
    <defs>
        <style>
            .cls-1 {
                fill: #f2f2f2;
            }

            .cls-2 {
                fill: #fff;
            }

            .cls-3 {
                fill: #e52327;
            }

            .cls-4 {
                fill: #2a327e;
            }
        </style>
    </defs>
    <ellipse class="cls-3" cx="1485.01" cy="1500.11" rx="1281.15" ry="1282.04" />
    <path class="cls-4"
        d="m2560.78,803.64L209.95,1625.66c2.92,30.08,6.88,59.85,11.84,89.28l2385.26-834.07c-14.54-26.33-29.98-52.08-46.27-77.24Z" />
    <path class="cls-4"
        d="m2684.77,1049.52L265.9,1895.34c9.08,28.08,19.12,55.72,30.05,82.91l2416.94-845.14c-8.43-28.29-17.82-56.15-28.12-83.58Z" />
    <path class="cls-4"
        d="m2752.87,1314.96L377.79,2145.46c15.23,26.11,31.35,51.63,48.33,76.52l2336.54-817.03c-2.22-30.3-5.5-60.31-9.79-89.99Z" />
    <path class="cls-2"
        d="m2466.47,1498.35c0,539.01-436.65,975.95-975.25,975.95s-975.26-436.94-975.26-975.95,436.61-975.95,975.26-975.95,975.25,436.94,975.25,975.95" />
    <path class="cls-4"
        d="m2098.45,1500.38c0,34.91,27.08,78.42,27.6,102.56-49.11,307.7-315.56,542.85-636.88,542.85-356.2,0-644.97-288.95-644.97-645.41s288.77-645.41,644.97-645.41c312.39,0,572.89,222.23,632.27,517.32,1.48,7.27-6.72,28.16-5.5,35.54-2.96,35.5-17.49,56.43-17.49,92.55" />
    <path class="cls-2"
        d="m714.32,1918.23c-95.95,0-187.62-25.32-232.24-48.82-14.32-7.53-21.77-23.73-18.19-39.53l37.05-162.34c2.44-10.74,9.71-19.74,19.71-24.43,4.8-2.21,9.93-3.32,15.1-3.32,5.57,0,11.18,1.29,16.27,3.91,39.49,20.22,105.99,41.81,174.26,41.81,15.13,0,64.51-1.73,64.51-24.17,0-13.25-27.31-28.23-91.3-50.15-153.48-55.21-231.02-140.94-231.02-254.97,0-75.36,32.4-143.3,91.26-191.27,59.68-48.64,142.52-74.36,239.54-74.36,80.63,0,150.09,13.06,212.31,39.96,16.2,7.01,24.87,24.8,20.4,41.85l-41.4,157.99c-2.66,10.18-9.63,18.64-19.12,23.17-4.87,2.32-10.14,3.51-15.42,3.51-4.98,0-9.97-1.07-14.61-3.14-47.57-21.37-94.8-31.74-144.37-31.74-35.58,0-56.84,9.52-56.84,18.75,0,11.77,48.35,29.97,104.33,51.08l4.32,1.62c145.73,54.21,213.67,135.14,213.67,254.6,0,76.13-31.48,144.33-88.67,191.97-61.23,51.04-150.98,78.01-259.54,78.01" />
    <path class="cls-4"
        d="m799.25,1126.3c87.09,0,150.27,16.35,198.17,37.05l-41.38,158.02c-31.58-14.17-86.02-34.88-158.98-34.88-59.89,0-92.55,21.78-92.55,54.47,0,37.05,39.19,51.22,131.74,86.1,131.75,49.01,190.57,118.76,190.57,221.2,0,126.39-98.02,234.26-312.54,234.26-88.16,0-174.19-22.88-215.59-44.69l37.01-162.34c44.65,22.85,116.54,45.76,190.57,45.76,67.53,0,100.19-22.92,100.19-59.93s-32.66-55.58-115.43-83.92c-124.14-44.69-206.89-112.22-206.89-221.2,0-129.64,109.97-229.91,295.09-229.91m0-71.41c-105.32,0-195.96,28.49-262.09,82.41-67.35,54.87-104.44,132.63-104.44,218.91,0,71.45,26.24,133.78,77.9,185.29,41.92,41.81,99.57,75.54,176.25,103.11.33.11.66.26,1.03.37,3.58,1.22,6.98,2.4,10.18,3.54-51.59-4.65-99.49-21.07-129.79-36.61-10.22-5.21-21.4-7.83-32.59-7.83-10.29,0-20.59,2.22-30.19,6.68-19.96,9.34-34.54,27.34-39.41,48.86l-37.05,162.34c-7.16,31.52,7.71,63.96,36.35,79.05,50,26.35,146.36,52.92,248.88,52.92,117.06,0,214.71-29.82,282.42-86.28,65.47-54.58,101.52-132.48,101.52-219.39,0-68.72-21.22-128.28-63.07-177.1-32.88-38.42-78.31-70.15-138.13-96.54,13.8,4.73,23.95,9.3,29.75,11.89,9.3,4.17,19.3,6.27,29.26,6.27,10.56,0,21.07-2.32,30.82-7.01,18.97-9.04,32.95-26.01,38.27-46.31l41.37-157.99c8.93-34.14-8.38-69.67-40.74-83.66-66.8-28.9-140.9-42.92-226.51-42.92" />
    <path class="cls-2"
        d="m1536.35,1907.33c-13.4,0-25.65-7.49-31.78-19.41l-125.21-244.08c-13.55-26.02-32.81-63.85-53.7-107.43.96,48.05,1.41,99.35,1.41,154.33v180.86c0,19.75-15.98,35.72-35.72,35.72h-179.65c-19.75,0-35.72-15.98-35.72-35.72v-734.42c0-19.71,15.98-35.69,35.72-35.69h231.94c13.36,0,25.57,7.46,31.74,19.3l116.28,225.11c12.11,22,24.8,46.98,37.79,74.1-1.07-34.69-1.59-70.82-1.59-108.46v-174.37c0-19.71,15.98-35.69,35.72-35.69h179.65c19.75,0,35.72,15.98,35.72,35.69v734.42c0,19.75-15.98,35.72-35.72,35.72h-206.88Z" />
    <path class="cls-4"
        d="m1743.24,1137.19v734.42h-206.89l-125.21-244.08c-40.3-77.35-88.2-176.51-123.03-264.78h-4.36c5.42,99.16,7.6,209.2,7.6,328v180.87h-179.65v-734.42h231.94l116.51,225.56c40.26,73.03,82.73,171.08,115.39,257.18h3.29c-10.88-96.99-15.24-199.43-15.24-308.37v-174.37h179.65Zm0-71.41h-179.65c-39.45,0-71.45,32-71.45,71.41v131.93l-85.06-164.7c-12.25-23.73-36.72-38.64-63.44-38.64h-231.94c-39.45,0-71.45,32-71.45,71.41v734.42c0,39.45,32,71.44,71.45,71.44h179.65c39.45,0,71.45-31.99,71.45-71.44v-181.87l110.01,214.49c12.21,23.84,36.76,38.82,63.55,38.82h206.89c39.45,0,71.41-31.99,71.41-71.44v-734.42c0-39.41-31.96-71.41-71.41-71.41" />
    <path class="cls-2"
        d="m2163.47,1919.31c-283.31,0-342.76-207.25-342.76-381.1v-401c0-19.74,15.98-35.72,35.72-35.72h197.06c19.71,0,35.69,15.98,35.69,35.72v417.31c0,137.54,60,137.54,79.71,137.54,39.96,0,80.81-16.31,80.81-137.54v-417.31c0-19.74,15.98-35.72,35.72-35.72h197.07c19.71,0,35.72,15.98,35.72,35.72v405.35c0,242.93-125.99,376.75-354.75,376.75" />
    <path class="cls-4"
        d="m2482.5,1137.19v405.39c0,226.63-113.26,341.03-319.03,341.03s-307.04-110.05-307.04-345.42v-400.99h197.07v417.34c0,111.16,38.12,173.27,115.4,173.27s116.51-56.65,116.51-173.27v-417.34h197.1Zm0-71.41h-197.1c-39.41,0-71.41,32-71.41,71.41v417.34c0,57.13-10.44,81.23-16.68,90.49-3.25,4.8-7.64,11.33-28.42,11.33-17.27,0-22.4-5.68-26.87-12.55-6.38-9.78-17.13-34.43-17.13-89.27v-417.34c0-39.41-31.95-71.41-71.41-71.41h-197.07c-39.45,0-71.44,32-71.44,71.41v400.99c0,134.22,32.62,238.18,96.94,308.99,65.02,71.56,159.76,107.83,281.54,107.83s220.61-36.24,288.48-107.76c67.68-71.29,101.96-173.82,101.96-304.67v-405.39c0-39.41-31.96-71.41-71.41-71.41" />
    <path class="cls-1"
        d="m688.43,746.83c11.9,1.53,22.83-1.41,29.92-8.45,6.97-6.92,7.5-14.86,1.32-21.08-15.94-16.06-51.2,27.6-80.49-1.9-13.72-13.82-13.64-36.64,3.04-53.2,13.07-12.98,28.84-17.01,45.08-15.59l-1.33,24.55c-11.65-1.53-21.7-.2-28.3,6.35-6.22,6.18-6.38,14.24-1.19,19.47,15.69,15.81,50.83-27.97,80.49,1.9,16.06,16.68,13.01,39.24-2.93,55.06-14.69,14.58-29.83,18.99-46.7,17.45l1.08-24.55Z" />
    <path class="cls-1"
        d="m704.32,608.89l55.42-45.28,13.1,16.03-36.13,29.52,18.42,22.55,30.7-25.08,13.1,16.03-30.7,25.08,19.98,24.45,36.13-29.52,13.1,16.03-55.42,45.28-77.69-95.08Z" />
    <path class="cls-1"
        d="m794.81,537.57l31.37-20.62c22.57-14.83,44.11-12.41,56.63,6.65,8.19,12.46,8.25,25.64.87,37.42l61.96,24.34-24.48,16.09-54.67-23.46-10.7,7.03,27.26,41.48-20.81,13.68-67.44-102.6Zm32.18,3.62l17.44,26.53,11.73-7.71c8.79-5.78,10.55-14.28,5.06-22.64-5.11-7.77-13.7-9.67-22.5-3.89l-11.73,7.71Z" />
    <path class="cls-1"
        d="m911.44,465.06l75.75,69.17-10.98-102,23.63-11.97,14.03,130.53-29.1,14.75-96.96-88.51,23.63-11.97Z" />
    <path class="cls-1" d="m1030.41,409l23.14-9.2,45.36,114.09-23.14,9.2-45.36-114.09Z" />
    <path class="cls-1"
        d="m1206.03,440.42l23.13,8.85c-6.41,17.83-21.09,32.44-42.44,38.8-37.15,11.06-71.04-9.97-81.05-43.59s6.87-69.76,44.03-80.81c21.35-6.35,41.69-1.97,56.7,9.11l-14.48,20.23c-9.58-7.58-22.12-10.99-35.57-6.98-22.19,6.6-32.84,28.62-26.14,51.15,6.7,22.53,27.66,35.14,49.85,28.54,13.45-4,22.09-13.71,25.96-25.29Z" />
    <path class="cls-1"
        d="m1236.24,345.12l70.38-12.97,3.75,20.35-45.88,8.46,5.28,28.63,38.98-7.19,3.75,20.35-38.98,7.19,5.72,31.05,45.88-8.46,3.75,20.35-70.38,12.97-22.25-120.75Z" />
    <path class="cls-1"
        d="m1405.91,320.68l31.92-.61,56.58,87.69-1.69-88.74,24.9-.48,2.34,122.76-31.92.61-56.58-87.69,1.69,88.74-24.9.47-2.34-122.76Z" />
    <path class="cls-1"
        d="m1600.15,324.97l32.42,3.64,32.5,127.2-26.32-2.95-8.12-33.03-48.81-5.48-15.24,30.41-26.32-2.95,59.88-116.83Zm25.18,72.9l-11.59-47.72-21.88,43.97,33.47,3.75Z" />
    <path class="cls-1"
        d="m1687.35,335.8l98.37,21.43-4.82,22.11-37.02-8.06-21.32,97.86-24.34-5.3,21.32-97.86-37.02-8.06,4.82-22.11Z" />
    <path class="cls-1" d="m1818.79,367.53l23.82,7.27-35.84,117.43-23.82-7.27,35.84-117.43Z" />
    <path class="cls-1"
        d="m1976.06,491.72c-13.43,32.41-49.32,49.81-84.96,35.03-35.81-14.84-48.86-52.53-35.42-84.94,13.43-32.41,49.32-49.81,85.13-34.96,35.65,14.78,48.69,52.46,35.26,84.87Zm-23.66-9.81c9-21.71.69-44.71-20.54-53.51-21.39-8.87-43.54,1.51-52.54,23.22-9,21.71-.69,44.71,20.7,53.58,21.23,8.8,43.37-1.58,52.37-23.29Z" />
    <path class="cls-1"
        d="m2036.66,454.2l27.56,16.1,2.64,104.33,44.77-76.63,21.51,12.56-61.93,106.02-27.56-16.1-2.64-104.33-44.77,76.63-21.51-12.56,61.93-106.02Z" />
    <path class="cls-1"
        d="m2200.19,558.81l25.82,19.95-38.29,125.58-20.96-16.19,10.22-32.45-38.86-30.03-28.82,18.08-20.96-16.19,111.85-68.74Zm-16.34,75.37l14.88-46.8-41.53,26.21,26.65,20.59Z" />
    <path class="cls-1" d="m2287.42,630.61l17.99,17.22-69.25,72.36,33.71,32.26-15.64,16.35-51.7-49.48,84.89-88.7Z" />
    <path class="cls-1"
        d="m1099.67,2508.67l23.01,9.54-28.61,69.03c-12.36,29.81-37.24,40.38-65.76,28.57-28.36-11.75-38.47-36.83-26.11-66.64l28.61-69.03,23.01,9.54-29.41,70.97c-6.31,15.23-1.42,27.7,13,33.68,14.1,5.84,26.54.56,32.85-14.67l29.41-70.97Z" />
    <path class="cls-1"
        d="m1156.07,2529.95l30.83,8.27,30.04,99.94,22.98-85.73,24.06,6.45-31.8,118.59-30.83-8.27-30.04-99.94-22.98,85.72-24.06-6.45,31.8-118.59Z" />
    <path class="cls-1" d="m1303.7,2565.21l24.59,3.98-19.63,121.2-24.59-3.98,19.63-121.2Z" />
    <path class="cls-1"
        d="m1379.42,2576.21l29.86,98.14,42.6-93.32,26.43,1.76-54.53,119.42-32.55-2.17-38.23-125.59,26.43,1.76Z" />
    <path class="cls-1"
        d="m1502.45,2581.25l71.49-3.3.95,20.68-46.61,2.15,1.34,29.08,39.6-1.83.95,20.67-39.6,1.83,1.46,31.54,46.61-2.15.95,20.68-71.49,3.3-5.66-122.65Z" />
    <path class="cls-1"
        d="m1608.36,2574.66l37.1-5.68c26.7-4.09,45.27,7.09,48.72,29.63,2.26,14.74-3.18,26.75-14.79,34.38l46.2,47.94-28.95,4.43-39.93-44.1-12.66,1.94,7.51,49.07-24.62,3.77-18.57-121.37Zm27.75,16.69l4.8,31.38,13.87-2.12c10.4-1.59,15.54-8.59,14.03-18.47-1.41-9.19-8.43-14.5-18.83-12.91l-13.87,2.12Z" />
    <path class="cls-1"
        d="m1756.76,2638.38c9.53,7.3,20.45,10.24,30.12,7.71,9.5-2.49,13.94-9.09,11.72-17.57-5.73-21.89-58.13-1.83-68.66-42.04-4.93-18.83,6.59-38.53,29.33-44.49,17.82-4.66,33.48-.24,46.81,9.14l-13.47,20.57c-9.31-7.17-18.67-11.07-27.66-8.71-8.48,2.22-12.66,9.12-10.8,16.24,5.64,21.55,58,1.32,68.66,42.04,5.52,22.49-8.44,40.47-30.16,46.15-20.02,5.24-35.34,1.45-49.14-8.35l13.26-20.69Z" />
    <path class="cls-1"
        d="m1830.69,2524.92l67.11-24.84,7.18,19.41-43.76,16.19,10.11,27.31,37.18-13.76,7.18,19.41-37.18,13.76,10.96,29.61,43.76-16.19,7.18,19.41-67.11,24.84-42.62-115.15Z" />
    <path class="cls-1" d="m1929.77,2486l22.42-10.85,43.62,90.15,42-20.32,9.85,20.37-64.42,31.17-53.48-110.52Z" />
</svg>