<?xml version="1.0" encoding="utf-8"?>
<!-- Generator: Adobe Illustrator 24.1.2, SVG Export Plug-In . SVG Version: 6.00 Build 0)  -->
<svg version="1.1" id="Calque_1" xmlns:sketch="http://www.bohemiancoding.com/sketch/ns"
	 xmlns="http://www.w3.org/2000/svg" xmlns:xlink="http://www.w3.org/1999/xlink" x="0px" y="0px" viewBox="0 0 52 60"
	 style="enable-background:new 0 0 52 60;" xml:space="preserve">
<style type="text/css">
	.st0{fill-rule:evenodd;clip-rule:evenodd;fill:#FFFFFF;}
</style>
<desc>Created with Sketch.</desc>
<g id="Nature" sketch:type="MSPage">
	<g id="Icon-11" transform="translate(-4.000000, 0.000000)" sketch:type="MSArtboardGroup">
		<path id="deer" sketch:type="MSShapeGroup" class="st0" d="M41,52.2c-0.1-1.8-0.4-6.2-2.1-8.7c-0.3-0.5-0.9-0.6-1.4-0.3
			c-0.5,0.3-0.6,0.9-0.3,1.4c1.3,2,1.7,5.7,1.8,7.5c-0.5,0-1,0.5-1,1c0,0.6,0.4,1,1,1h1c0.5,0,1,0.4,1,1c0,0,0,0,0,0.1V58h-4v-3
			c0,0,0-0.1,0-0.1c0-1.2-0.9-2.3-2-2.7c0.1-1.1,0.3-3.3,0.9-6c0.1-0.5-0.2-1.1-0.7-1.2c-0.5-0.1-1.1,0.2-1.2,0.7
			c-0.7,2.7-0.9,5-1,6.2h-1c-0.4,0-0.7,0.1-1,0.2V48c0-0.6-0.4-1-1-1s-1,0.4-1,1v4.2c-0.3-0.1-0.6-0.2-1-0.2h-1
			c-0.1-1.2-0.3-3.5-1-6.2c-0.1-0.5-0.7-0.9-1.2-0.7c-0.5,0.1-0.9,0.7-0.7,1.2c0.7,2.6,0.9,4.8,0.9,6c-1.1,0.4-1.9,1.5-2,2.7
			c0,0,0,0.1,0,0.1v3h-4v-2.9c0,0,0-0.1,0-0.1c0-0.5,0.5-1,1-1h1c0.6,0,1-0.4,1-1c0-0.5-0.4-1-1-1c0.1-1.8,0.4-5.4,1.8-7.5
			c0.3-0.5,0.2-1.1-0.3-1.4c-0.5-0.3-1.1-0.2-1.4,0.3c-1.7,2.6-2.1,6.9-2.1,8.7c-1.1,0.4-2,1.5-2,2.7c0,0,0,0.1,0,0.1v4
			c0,0.6,0.4,1,1,1h24c0.6,0,1-0.4,1-1v-4c0,0,0-0.1,0-0.1C42.9,53.6,42.1,52.6,41,52.2L41,52.2z M25,55.1C25,55,25,55,25,55.1
			c0-0.6,0.5-1.1,1-1.1h2c0.5,0,1,0.4,1,1c0,0,0,0,0,0.1V58h-4V55.1L25,55.1z M31,56v-0.9c0,0,0-0.1,0-0.1c0-0.5,0.5-1,1-1h2
			c0.5,0,1,0.4,1,1c0,0,0,0,0,0.1V58h-4V56L31,56z M35.5,25c-0.8,0-1.5,0.7-1.5,1.5s0.7,1.5,1.5,1.5s1.5-0.7,1.5-1.5
			S36.3,25,35.5,25L35.5,25z M24.5,25c-0.8,0-1.5,0.7-1.5,1.5s0.7,1.5,1.5,1.5s1.5-0.7,1.5-1.5S25.3,25,24.5,25L24.5,25z M55,0
			c-0.6,0-1,0.4-1,1c0,0.1,0,5.5-3.6,8.2c-0.6,0.4-1.2,0.8-1.8,1.2c1.7-4,0.4-7.5,0.4-7.7c-0.2-0.5-0.8-0.8-1.3-0.6
			c-0.5,0.2-0.8,0.8-0.6,1.3c0.1,0.2,1.6,4.4-1.8,8.6c-1.2,0.5-2.4,0.9-3.5,1.3C43.5,10.2,43,7,43,6.8c-0.1-0.5-0.6-0.9-1.1-0.8
			c-0.5,0.1-0.9,0.6-0.8,1.1c0,0.2,0.7,4.4-2.8,7.1c-1.5,0.4-2.6,0.6-3,0.7c-1.4-0.6-3.2-1-5.2-1c-2,0-3.8,0.4-5.2,1
			c-0.5-0.1-1.7-0.3-3.3-0.7c-3.3-2.7-2.5-6.9-2.5-7c0.1-0.5-0.2-1.1-0.8-1.2c-0.5-0.1-1.1,0.2-1.2,0.8c0,0.2-0.6,3.4,1.1,6.5
			c-1.1-0.4-2.3-0.8-3.5-1.3c-3.3-4.2-1.8-8.4-1.7-8.6c0.2-0.5,0-1.1-0.6-1.3c-0.5-0.2-1.1,0-1.3,0.6c-0.1,0.2-1.4,3.7,0.3,7.7
			c-0.6-0.4-1.2-0.7-1.7-1.2C6.1,6.5,6,1.1,6,1c0-0.6-0.4-1-1-1h0C4.4,0,4,0.4,4,1c0,0.3,0.1,6.5,4.4,9.8c1.5,1.1,3.3,2.1,5.2,2.9v0
			c3.1,1.4,6.4,2.2,8.5,2.7c-0.2,0.1-0.4,0.3-0.5,0.4c-1.3-0.5-4.8-1.7-9.7-0.8c-0.5,0.1-0.8,0.5-0.8,1c0,3.3,3.7,6.4,7,6.9
			c0.2,3.6,1.4,6.1,2.5,8.4c0.6,1.3,1.2,2.6,1.6,3.9c0,0.2,0.1,0.4,0.2,0.7c0.5,2.4,1.6,8,7.8,8s7.3-5.6,7.8-8
			c0.1-0.3,0.1-0.5,0.2-0.7c0.3-1.3,0.9-2.6,1.6-3.9c1.1-2.3,2.3-4.8,2.5-8.4c3.3-0.5,7-3.6,7-6.9c0-0.5-0.4-0.9-0.8-1
			c-5-0.8-8.4,0.3-9.7,0.8c-0.2-0.1-0.3-0.3-0.5-0.4c3.4-0.8,9.5-2.6,13.6-5.7C55.9,7.5,56,1.3,56,1C56,0.4,55.6,0,55,0L55,0z
			 M30,40c-1,0-1.9-1.2-2-1.9c0.4-0.1,1.3-0.1,2-0.1s1.6,0,2,0.1C31.9,38.8,31,40,30,40L30,40z M46.9,17.8C46.2,20,43.2,22,41,22
			c-0.6,0-1,0.4-1,1c0,3.6-1.2,6.1-2.3,8.5c-0.7,1.4-1.3,2.8-1.7,4.3c-0.1,0.2-0.1,0.5-0.2,0.8c-0.6,2.9-1.5,5.9-4.9,6.4v-1.1
			c1.8-0.6,3-2.5,3-3.8c0-2-2.2-2-4-2s-4,0-4,2c0,1.3,1.2,3.3,3,3.8v1.1c-3.4-0.5-4.3-3.5-4.9-6.4C24.1,36.2,24,36,24,35.8
			c-0.4-1.5-1-2.9-1.7-4.3C21.2,29.1,20,26.6,20,23c0-0.6-0.4-1-1-1c-2.2,0-5.2-2-5.9-4.2c3.1-0.4,5.5,0.1,6.8,0.6
			c-0.5,0.6-0.8,1-0.8,1.1c-0.3,0.5-0.1,1.1,0.3,1.4c0.5,0.3,1.1,0.1,1.4-0.3c0,0,2.8-4.5,9.1-4.5c6.3,0,9,4.3,9.1,4.5
			c0.2,0.3,0.5,0.5,0.9,0.5c0.2,0,0.4,0,0.5-0.1c0.5-0.3,0.6-0.9,0.3-1.4c0-0.1-0.3-0.5-0.8-1.1C41.4,18,43.7,17.5,46.9,17.8
			L46.9,17.8z"/>
	</g>
</g>
</svg>
