<?xml version="1.0" encoding="utf-8"?>
<!-- Generator: Adobe Illustrator 24.1.2, SVG Export Plug-In . SVG Version: 6.00 Build 0)  -->
<svg version="1.1" id="Calque_1" xmlns:sketch="http://www.bohemiancoding.com/sketch/ns"
	 xmlns="http://www.w3.org/2000/svg" xmlns:xlink="http://www.w3.org/1999/xlink" x="0px" y="0px" viewBox="0 0 60 60"
	 style="enable-background:new 0 0 60 60;" xml:space="preserve">
<style type="text/css">
	.st0{fill-rule:evenodd;clip-rule:evenodd;fill:#FFFFFF;}
</style>
<desc>Created with Sketch.</desc>
<g id="Security" sketch:type="MSPage">
	<g id="Icon-5" sketch:type="MSArtboardGroup">
		<path id="police-station" sketch:type="MSShapeGroup" class="st0" d="M37,56H23c-0.6,0-1,0.4-1,1v2c0,0.6,0.4,1,1,1s1-0.4,1-1v-1
			h12v1c0,0.6,0.4,1,1,1s1-0.4,1-1v-2C38,56.4,37.6,56,37,56L37,56z M18,55c0,0.6-0.4,1-1,1s-1-0.4-1-1c0,0.6-0.4,1-1,1s-1-0.4-1-1
			c0,0.6-0.4,1-1,1s-1-0.4-1-1c0,0.6-0.4,1-1,1s-1-0.4-1-1c0,0.6-0.4,1-1,1s-1-0.4-1-1c0,0.6-0.4,1-1,1s-1-0.4-1-1c0,0.6-0.4,1-1,1
			s-1-0.4-1-1c0,0.6-0.4,1-1,1s-1-0.4-1-1v3h16V55z M20,55v4c0,0.6-0.4,1-1,1H1c-0.6,0-1-0.4-1-1v-4c0-1.1,0.9-2,2-2
			c0.4,0,0.7,0.1,1,0.3c0.6-0.3,1.4-0.3,2,0c0.6-0.3,1.4-0.3,2,0c0.6-0.3,1.4-0.3,2,0c0.6-0.3,1.4-0.3,2,0c0.6-0.3,1.4-0.3,2,0
			c0.6-0.3,1.4-0.3,2,0c0.6-0.3,1.4-0.3,2,0c0.3-0.2,0.6-0.3,1-0.3C19.1,53,20,53.9,20,55L20,55z M58,55c0,0.6-0.4,1-1,1s-1-0.4-1-1
			c0,0.6-0.4,1-1,1s-1-0.4-1-1c0,0.6-0.4,1-1,1s-1-0.4-1-1c0,0.6-0.4,1-1,1s-1-0.4-1-1c0,0.6-0.4,1-1,1s-1-0.4-1-1c0,0.6-0.4,1-1,1
			s-1-0.4-1-1c0,0.6-0.4,1-1,1s-1-0.4-1-1c0,0.6-0.4,1-1,1s-1-0.4-1-1v3h16V55z M60,55v4c0,0.6-0.4,1-1,1H41c-0.6,0-1-0.4-1-1v-4
			c0-1.1,0.9-2,2-2c0.4,0,0.7,0.1,1,0.3c0.6-0.3,1.4-0.3,2,0c0.6-0.3,1.4-0.3,2,0c0.6-0.3,1.4-0.3,2,0c0.6-0.3,1.4-0.3,2,0
			c0.6-0.3,1.4-0.3,2,0c0.6-0.3,1.4-0.3,2,0c0.6-0.3,1.4-0.3,2,0c0.3-0.2,0.6-0.3,1-0.3C59.1,53,60,53.9,60,55L60,55z M44,12h-8v6h8
			V12z M16,18h8v-6h-8V18z M26,18h8v-6h-8V18z M46,12v6h5c0.6,0,1,0.4,1,1s-0.4,1-1,1h-5v6h5c0.6,0,1,0.4,1,1s-0.4,1-1,1h-5v6h5
			c0.6,0,1,0.4,1,1s-0.4,1-1,1h-5v6h5c0.6,0,1,0.4,1,1s-0.4,1-1,1h-5v6c0,0.6-0.4,1-1,1s-1-0.4-1-1V20H16v30c0,0.6-0.4,1-1,1
			s-1-0.4-1-1v-6H9c-0.6,0-1-0.4-1-1s0.4-1,1-1h5v-6H9c-0.6,0-1-0.4-1-1s0.4-1,1-1h5v-6H9c-0.6,0-1-0.4-1-1s0.4-1,1-1h5v-6H9
			c-0.6,0-1-0.4-1-1s0.4-1,1-1h5v-6H9c-0.6,0-1-0.4-1-1s0.4-1,1-1h5V5c0-0.6,0.4-1,1-1s1,0.4,1,1v5h8V5c0-0.6,0.4-1,1-1s1,0.4,1,1v5
			h8V5c0-0.6,0.4-1,1-1s1,0.4,1,1v5h8V5c0-0.6,0.4-1,1-1s1,0.4,1,1v5h5c0.6,0,1,0.4,1,1s-0.4,1-1,1H46z M31.9,31.2l1.4-1.2h-1.5
			c-0.4,0-0.8-0.2-0.9-0.6l-0.9-2l-0.9,2C29,29.8,28.6,30,28.2,30h-1.4l1.4,1.1c0.3,0.3,0.5,0.7,0.3,1.1l-0.6,1.6l1.7-0.9
			c0.1-0.1,0.3-0.1,0.5-0.1c0.2,0,0.3,0,0.5,0.1l1.6,0.9l-0.6-1.6C31.5,31.9,31.6,31.4,31.9,31.2L31.9,31.2z M36.6,29.8l-2.9,2.5
			l1.2,3.4c0.1,0.4,0,0.8-0.3,1.1c-0.3,0.3-0.8,0.3-1.1,0.1L30.1,35l-3.6,1.9C26.3,37,26.2,37,26,37c-0.2,0-0.5-0.1-0.7-0.3
			c-0.3-0.3-0.4-0.7-0.3-1.1l1.4-3.4l-3-2.4c-0.3-0.3-0.5-0.7-0.3-1.1c0.1-0.4,0.5-0.7,0.9-0.7h3.6l1.5-3.4c0.2-0.4,0.5-0.6,0.9-0.6
			h0c0.4,0,0.7,0.2,0.9,0.6l1.5,3.4H36c0.4,0,0.8,0.3,0.9,0.7C37.1,29,37,29.5,36.6,29.8L36.6,29.8z M30.7,49.7
			c0.2-0.2,0.3-0.5,0.3-0.7s-0.1-0.5-0.3-0.7c-0.4-0.4-1-0.4-1.4,0C29.1,48.5,29,48.7,29,49s0.1,0.5,0.3,0.7
			c0.2,0.2,0.4,0.3,0.7,0.3S30.5,49.9,30.7,49.7L30.7,49.7z M39,42H21c-0.6,0-1,0.4-1,1s0.4,1,1,1h3v9c0,0.6,0.4,1,1,1s1-0.4,1-1v-9
			h8v9c0,0.6,0.4,1,1,1s1-0.4,1-1v-9h3c0.6,0,1-0.4,1-1S39.6,42,39,42L39,42z M4,50V1c0-0.6,0.4-1,1-1h50c0.6,0,1,0.4,1,1v49
			c0,0.6-0.4,1-1,1s-1-0.4-1-1V2H6v48c0,0.6-0.4,1-1,1S4,50.6,4,50L4,50z"/>
	</g>
</g>
</svg>
