<svg width="29" height="29" viewBox="0 0 29 29" fill="none" xmlns="http://www.w3.org/2000/svg">
<path d="M4.37109 25.0171H21.5281V27.6977H4.37109V25.0171Z" fill="#B3B3B3"/>
<path d="M23.7257 25.0171H2.17188V22.5508C2.17188 21.4551 3.06011 20.5669 4.15574 20.5669H21.7418C22.8374 20.5669 23.7257 21.4551 23.7257 22.5508V25.0171Z" fill="#FFBA57"/>
<path d="M11.4492 13.0605H14.4515V20.5667H11.4492V13.0605Z" fill="#E6E6E6"/>
<path d="M15.4436 13.0606H10.4572L8.71484 5.71533H17.186L15.4436 13.0606Z" fill="#FFBA57"/>
<path d="M14.3982 2.92725H11.5029C9.96305 2.92725 8.71484 4.17545 8.71484 5.71529H17.186C17.186 4.17545 15.938 2.92725 14.3982 2.92725Z" fill="#E8655A"/>
<path d="M21.7421 20.053H14.9646V13.5746H15.4424C15.5581 13.5746 15.6704 13.5356 15.7611 13.4638C15.8519 13.3921 15.9158 13.2919 15.9425 13.1793L17.6849 5.83384V5.83223C17.6938 5.79454 17.699 5.75564 17.699 5.71533C17.6986 3.89452 16.2172 2.41333 14.3966 2.41333H11.5015C9.68071 2.41333 8.19952 3.89473 8.19952 5.71533C8.19952 5.75564 8.20456 5.79454 8.21343 5.83223V5.83384L9.95583 13.1793C9.98255 13.2919 10.0464 13.3921 10.1372 13.4638C10.2279 13.5356 10.3402 13.5746 10.4559 13.5746H10.934V20.053H4.15602C2.77882 20.053 1.6582 21.1736 1.6582 22.5506V25.017C1.6582 25.0845 1.6715 25.1513 1.69733 25.2137C1.72315 25.276 1.76101 25.3327 1.80874 25.3804C1.85646 25.4282 1.91312 25.466 1.97548 25.4918C2.03783 25.5177 2.10466 25.531 2.17216 25.531H3.85651V27.6978C3.85651 27.7653 3.86981 27.8322 3.89564 27.8945C3.92146 27.9569 3.95932 28.0135 4.00705 28.0612C4.05477 28.109 4.11143 28.1468 4.17379 28.1727C4.23614 28.1985 4.30297 28.2118 4.37047 28.2118H21.5276C21.5951 28.2118 21.662 28.1985 21.7243 28.1727C21.7867 28.1468 21.8433 28.109 21.8911 28.0612C21.9388 28.0135 21.9766 27.9569 22.0025 27.8945C22.0283 27.8322 22.0416 27.7653 22.0416 27.6978V25.531H23.7258C23.8621 25.531 23.9928 25.4768 24.0892 25.3804C24.1856 25.284 24.2397 25.1533 24.2397 25.017V22.5506C24.2397 21.1734 23.1193 20.053 21.7421 20.053ZM11.5013 3.44124H14.3966C15.4741 3.44124 16.3786 4.19403 16.6122 5.20138H9.28588C9.51947 4.19403 10.424 3.44104 11.5013 3.44104V3.44124ZM10.8622 12.5469L9.36347 6.22928H16.5346L15.0359 12.5469H10.8624H10.8622ZM11.9619 13.5746H13.9365V20.053H11.9619V13.5746ZM21.0137 27.1839H4.88442V25.5312H21.0137V27.1841V27.1839ZM21.7421 21.0809C22.5527 21.0809 23.212 21.7402 23.212 22.5506V24.5033H2.68611V22.5506C2.68611 21.7404 3.34558 21.0807 4.15602 21.0807H21.7421V21.0809Z" fill="#322E63"/>
<path d="M13.7542 22.8945H3.88895C3.82146 22.8945 3.75463 22.9078 3.69227 22.9337C3.62992 22.9595 3.57326 22.9973 3.52553 23.0451C3.47781 23.0928 3.43995 23.1494 3.41412 23.2118C3.38829 23.2742 3.375 23.341 3.375 23.4085C3.375 23.476 3.38829 23.5428 3.41412 23.6052C3.43995 23.6675 3.47781 23.7242 3.52553 23.7719C3.57326 23.8196 3.62992 23.8575 3.69227 23.8833C3.75463 23.9091 3.82146 23.9224 3.88895 23.9224H13.7542C13.8905 23.9224 14.0213 23.8683 14.1177 23.7719C14.214 23.6755 14.2682 23.5448 14.2682 23.4085C14.2682 23.2722 14.214 23.1414 14.1177 23.0451C14.0213 22.9487 13.8905 22.8945 13.7542 22.8945ZM15.8453 22.8945H15.47C15.4025 22.8945 15.3357 22.9078 15.2734 22.9337C15.211 22.9595 15.1543 22.9973 15.1066 23.0451C15.0589 23.0928 15.021 23.1494 14.9952 23.2118C14.9694 23.2742 14.9561 23.341 14.9561 23.4085C14.9561 23.476 14.9694 23.5428 14.9952 23.6052C15.021 23.6675 15.0589 23.7242 15.1066 23.7719C15.1543 23.8196 15.211 23.8575 15.2734 23.8833C15.3357 23.9091 15.4025 23.9224 15.47 23.9224H15.8453C15.9816 23.9224 16.1124 23.8683 16.2087 23.7719C16.3051 23.6755 16.3593 23.5448 16.3593 23.4085C16.3593 23.2722 16.3051 23.1414 16.2087 23.0451C16.1124 22.9487 15.9816 22.8945 15.8453 22.8945Z" fill="#322E63"/>
<circle cx="22.5" cy="7.6875" r="4.5" fill="white"/>
<path fill-rule="evenodd" clip-rule="evenodd" d="M22.0004 13.2874C25.0932 13.2874 27.6004 10.7802 27.6004 7.6874C27.6004 4.59461 25.0932 2.0874 22.0004 2.0874C18.9076 2.0874 16.4004 4.59461 16.4004 7.6874C16.4004 10.7802 18.9076 13.2874 22.0004 13.2874ZM24.5954 6.78238C24.8687 6.50901 24.8687 6.06579 24.5954 5.79243C24.322 5.51906 23.8788 5.51906 23.6054 5.79243L21.3004 8.09745L20.3954 7.19243C20.122 6.91906 19.6788 6.91906 19.4054 7.19243C19.132 7.4658 19.132 7.90901 19.4054 8.18238L20.8054 9.58238C21.0788 9.85574 21.522 9.85574 21.7954 9.58238L24.5954 6.78238Z" fill="#10B981"/>
</svg>
