<svg width="24" height="24" viewBox="0 0 24 24" fill="none" xmlns="http://www.w3.org/2000/svg">
<path d="M7 19C7 20.1046 6.10457 21 5 21C3.89543 21 3 20.1046 3 19V18.9939V18.9877V18.9816V18.9754V18.9692V18.9629V18.9567V18.9504V18.9441V18.9378V18.9315V18.9252V18.9188V18.9124V18.906V18.8996V18.8931V18.8867V18.8802V18.8737V18.8672V18.8607V18.8541V18.8475V18.8409V18.8343V18.8277V18.8211V18.8144V18.8077V18.8011V18.7943V18.7876V18.7809V18.7741V18.7673V18.7606V18.7537V18.7469V18.7401V18.7332V18.7264V18.7195V18.7126V18.7057V18.6987V18.6918V18.6848V18.6778V18.6708V18.6638V18.6568V18.6498V18.6427V18.6357V18.6286V18.6215V18.6144V18.6073V18.6002V18.593V18.5859V18.5787V18.5715V18.5643V18.5571V18.5499V18.5426V18.5354V18.5281V18.5209V18.5136V18.5063V18.499V18.4917V18.4844V18.477V18.4697V18.4623V18.4549V18.4476V18.4402V18.4328V18.4254V18.4179V18.4105V18.4031V18.3956V18.3881V18.3807V18.3732V18.3657V18.3582V18.3507V18.3432V18.3357V18.3281V18.3206V18.313V18.3055V18.2979V18.2903V18.2828V18.2752V18.2676V18.26V18.2523V18.2447V18.2371V18.2295V18.2218V18.2142V18.2065V18.1989V18.1912V18.1835V18.1759V18.1682V18.1605V18.1528V18.1451V18.1374V18.1297V18.1219V18.1142V18.1065V18.0988V18.091V18.0833V18.0755V18.0678V18.06V18.0523V18.0445V18.0368V18.029V18.0212V18.0134V18.0057V17.9979V17.9901V17.9823V17.9745V17.9667V17.9589V17.9511V17.9433V17.9355V17.9277V17.9199V17.9121V17.9043V17.8965V17.8887V17.8809V17.8731V17.8653V17.8574V17.8496V17.8418V17.834V17.8262V17.8184V17.8106V17.8027V17.7949V17.7871V17.7793V17.7715V17.7637V17.7558V17.748V17.7402V17.7324V17.7246V17.7168V17.709V17.7012V17.6934V17.6856V17.6778V17.67V17.6622V17.6544V17.6466V17.6389V17.6311V17.6233V17.6155V17.6077V17.6V17.5922V17.5845V17.5767V17.5689V17.5612V17.5535V17.5457V17.538V17.5303V17.5225V17.5148V17.5071V17.4994V17.4917V17.484V17.4763V17.4686V17.4609V17.4532V17.4456V17.4379V17.4302V17.4226V17.4149V17.4073V17.3997V17.392V17.3844V17.3768V17.3692V17.3616V17.354V17.3464V17.3389V17.3313V17.3237V17.3162V17.3087V17.3011V17.2936V17.2861V17.2786V17.2711V17.2636V17.2561V17.2487V17.2412V17.2337V17.2263V17.2189V17.2115V17.204V17.1966V17.1893V17.1819V17.1745V17.1671V17.1598V17.1525V17.1451V17.1378V17.1305V17.1232V17.116V17.1087V17.1014V17.0942V17.087V17.0797V17.0725V17.0653V17.0582V17.051V17.0438V17.0367V17.0296V17.0225V17.0154V17.0083V17.0012V17H7V17.0012V17.0083V17.0154V17.0225V17.0296V17.0367V17.0438V17.051V17.0582V17.0653V17.0725V17.0797V17.087V17.0942V17.1014V17.1087V17.116V17.1232V17.1305V17.1378V17.1451V17.1525V17.1598V17.1671V17.1745V17.1819V17.1893V17.1966V17.204V17.2115V17.2189V17.2263V17.2337V17.2412V17.2487V17.2561V17.2636V17.2711V17.2786V17.2861V17.2936V17.3011V17.3087V17.3162V17.3237V17.3313V17.3389V17.3464V17.354V17.3616V17.3692V17.3768V17.3844V17.392V17.3997V17.4073V17.4149V17.4226V17.4302V17.4379V17.4456V17.4532V17.4609V17.4686V17.4763V17.484V17.4917V17.4994V17.5071V17.5148V17.5225V17.5303V17.538V17.5457V17.5535V17.5612V17.5689V17.5767V17.5845V17.5922V17.6V17.6077V17.6155V17.6233V17.6311V17.6389V17.6466V17.6544V17.6622V17.67V17.6778V17.6856V17.6934V17.7012V17.709V17.7168V17.7246V17.7324V17.7402V17.748V17.7558V17.7637V17.7715V17.7793V17.7871V17.7949V17.8027V17.8106V17.8184V17.8262V17.834V17.8418V17.8496V17.8574V17.8653V17.8731V17.8809V17.8887V17.8965V17.9043V17.9121V17.9199V17.9277V17.9355V17.9433V17.9511V17.9589V17.9667V17.9745V17.9823V17.9901V17.9979V18.0057V18.0134V18.0212V18.029V18.0368V18.0445V18.0523V18.06V18.0678V18.0755V18.0833V18.091V18.0988V18.1065V18.1142V18.1219V18.1297V18.1374V18.1451V18.1528V18.1605V18.1682V18.1759V18.1835V18.1912V18.1989V18.2065V18.2142V18.2218V18.2295V18.2371V18.2447V18.2523V18.26V18.2676V18.2752V18.2828V18.2903V18.2979V18.3055V18.313V18.3206V18.3281V18.3357V18.3432V18.3507V18.3582V18.3657V18.3732V18.3807V18.3881V18.3956V18.4031V18.4105V18.4179V18.4254V18.4328V18.4402V18.4476V18.4549V18.4623V18.4697V18.477V18.4844V18.4917V18.499V18.5063V18.5136V18.5209V18.5281V18.5354V18.5426V18.5499V18.5571V18.5643V18.5715V18.5787V18.5859V18.593V18.6002V18.6073V18.6144V18.6215V18.6286V18.6357V18.6427V18.6498V18.6568V18.6638V18.6708V18.6778V18.6848V18.6918V18.6987V18.7057V18.7126V18.7195V18.7264V18.7332V18.7401V18.7469V18.7537V18.7606V18.7673V18.7741V18.7809V18.7876V18.7943V18.8011V18.8077V18.8144V18.8211V18.8277V18.8343V18.8409V18.8475V18.8541V18.8607V18.8672V18.8737V18.8802V18.8867V18.8931V18.8996V18.906V18.9124V18.9188V18.9252V18.9315V18.9378V18.9441V18.9504V18.9567V18.9629V18.9692V18.9754V18.9816V18.9877V18.9939V19Z" stroke="#32257F" stroke-width="2"/>
<path d="M21 19C21 20.1046 20.1046 21 19 21C17.8954 21 17 20.1046 17 19V18.9939V18.9877V18.9816V18.9754V18.9692V18.9629V18.9567V18.9504V18.9441V18.9378V18.9315V18.9252V18.9188V18.9124V18.906V18.8996V18.8931V18.8867V18.8802V18.8737V18.8672V18.8607V18.8541V18.8475V18.8409V18.8343V18.8277V18.8211V18.8144V18.8077V18.8011V18.7943V18.7876V18.7809V18.7741V18.7673V18.7606V18.7537V18.7469V18.7401V18.7332V18.7264V18.7195V18.7126V18.7057V18.6987V18.6918V18.6848V18.6778V18.6708V18.6638V18.6568V18.6498V18.6427V18.6357V18.6286V18.6215V18.6144V18.6073V18.6002V18.593V18.5859V18.5787V18.5715V18.5643V18.5571V18.5499V18.5426V18.5354V18.5281V18.5209V18.5136V18.5063V18.499V18.4917V18.4844V18.477V18.4697V18.4623V18.4549V18.4476V18.4402V18.4328V18.4254V18.4179V18.4105V18.4031V18.3956V18.3881V18.3807V18.3732V18.3657V18.3582V18.3507V18.3432V18.3357V18.3281V18.3206V18.313V18.3055V18.2979V18.2903V18.2828V18.2752V18.2676V18.26V18.2523V18.2447V18.2371V18.2295V18.2218V18.2142V18.2065V18.1989V18.1912V18.1835V18.1759V18.1682V18.1605V18.1528V18.1451V18.1374V18.1297V18.1219V18.1142V18.1065V18.0988V18.091V18.0833V18.0755V18.0678V18.06V18.0523V18.0445V18.0368V18.029V18.0212V18.0134V18.0057V17.9979V17.9901V17.9823V17.9745V17.9667V17.9589V17.9511V17.9433V17.9355V17.9277V17.9199V17.9121V17.9043V17.8965V17.8887V17.8809V17.8731V17.8653V17.8574V17.8496V17.8418V17.834V17.8262V17.8184V17.8106V17.8027V17.7949V17.7871V17.7793V17.7715V17.7637V17.7558V17.748V17.7402V17.7324V17.7246V17.7168V17.709V17.7012V17.6934V17.6856V17.6778V17.67V17.6622V17.6544V17.6466V17.6389V17.6311V17.6233V17.6155V17.6077V17.6V17.5922V17.5845V17.5767V17.5689V17.5612V17.5535V17.5457V17.538V17.5303V17.5225V17.5148V17.5071V17.4994V17.4917V17.484V17.4763V17.4686V17.4609V17.4532V17.4456V17.4379V17.4302V17.4226V17.4149V17.4073V17.3997V17.392V17.3844V17.3768V17.3692V17.3616V17.354V17.3464V17.3389V17.3313V17.3237V17.3162V17.3087V17.3011V17.2936V17.2861V17.2786V17.2711V17.2636V17.2561V17.2487V17.2412V17.2337V17.2263V17.2189V17.2115V17.204V17.1966V17.1893V17.1819V17.1745V17.1671V17.1598V17.1525V17.1451V17.1378V17.1305V17.1232V17.116V17.1087V17.1014V17.0942V17.087V17.0797V17.0725V17.0653V17.0582V17.051V17.0438V17.0367V17.0296V17.0225V17.0154V17.0083V17.0012V17H21V17.0012V17.0083V17.0154V17.0225V17.0296V17.0367V17.0438V17.051V17.0582V17.0653V17.0725V17.0797V17.087V17.0942V17.1014V17.1087V17.116V17.1232V17.1305V17.1378V17.1451V17.1525V17.1598V17.1671V17.1745V17.1819V17.1893V17.1966V17.204V17.2115V17.2189V17.2263V17.2337V17.2412V17.2487V17.2561V17.2636V17.2711V17.2786V17.2861V17.2936V17.3011V17.3087V17.3162V17.3237V17.3313V17.3389V17.3464V17.354V17.3616V17.3692V17.3768V17.3844V17.392V17.3997V17.4073V17.4149V17.4226V17.4302V17.4379V17.4456V17.4532V17.4609V17.4686V17.4763V17.484V17.4917V17.4994V17.5071V17.5148V17.5225V17.5303V17.538V17.5457V17.5535V17.5612V17.5689V17.5767V17.5845V17.5922V17.6V17.6077V17.6155V17.6233V17.6311V17.6389V17.6466V17.6544V17.6622V17.67V17.6778V17.6856V17.6934V17.7012V17.709V17.7168V17.7246V17.7324V17.7402V17.748V17.7558V17.7637V17.7715V17.7793V17.7871V17.7949V17.8027V17.8106V17.8184V17.8262V17.834V17.8418V17.8496V17.8574V17.8653V17.8731V17.8809V17.8887V17.8965V17.9043V17.9121V17.9199V17.9277V17.9355V17.9433V17.9511V17.9589V17.9667V17.9745V17.9823V17.9901V17.9979V18.0057V18.0134V18.0212V18.029V18.0368V18.0445V18.0523V18.06V18.0678V18.0755V18.0833V18.091V18.0988V18.1065V18.1142V18.1219V18.1297V18.1374V18.1451V18.1528V18.1605V18.1682V18.1759V18.1835V18.1912V18.1989V18.2065V18.2142V18.2218V18.2295V18.2371V18.2447V18.2523V18.26V18.2676V18.2752V18.2828V18.2903V18.2979V18.3055V18.313V18.3206V18.3281V18.3357V18.3432V18.3507V18.3582V18.3657V18.3732V18.3807V18.3881V18.3956V18.4031V18.4105V18.4179V18.4254V18.4328V18.4402V18.4476V18.4549V18.4623V18.4697V18.477V18.4844V18.4917V18.499V18.5063V18.5136V18.5209V18.5281V18.5354V18.5426V18.5499V18.5571V18.5643V18.5715V18.5787V18.5859V18.593V18.6002V18.6073V18.6144V18.6215V18.6286V18.6357V18.6427V18.6498V18.6568V18.6638V18.6708V18.6778V18.6848V18.6918V18.6987V18.7057V18.7126V18.7195V18.7264V18.7332V18.7401V18.7469V18.7537V18.7606V18.7673V18.7741V18.7809V18.7876V18.7943V18.8011V18.8077V18.8144V18.8211V18.8277V18.8343V18.8409V18.8475V18.8541V18.8607V18.8672V18.8737V18.8802V18.8867V18.8931V18.8996V18.906V18.9124V18.9188V18.9252V18.9315V18.9378V18.9441V18.9504V18.9567V18.9629V18.9692V18.9754V18.9816V18.9877V18.9939V19Z" stroke="#32257F" stroke-width="2"/>
<rect x="1" y="9" width="22" height="8" rx="2" stroke="#32257F" stroke-width="2" stroke-linejoin="round"/>
<path d="M3.39891 9C3.01952 6.88771 4.05179 4.47147 4.54693 3.47133C4.70375 3.15456 4.94148 2.88983 5.27131 2.76273C6.03876 2.467 7.8998 2 12 2C16.1003 2 17.9613 2.467 18.7288 2.76273C19.0586 2.88983 19.2963 3.15456 19.4532 3.47133C19.9483 4.47147 20.9806 6.88771 20.6012 9" stroke="#32257F" stroke-width="2" stroke-linejoin="round"/>
<circle cx="5" cy="13" r="1.5" fill="#32257F"/>
<circle cx="19" cy="13" r="1.5" fill="#32257F"/>
<path d="M12.1423 9C12.0501 8.76542 12 8.51298 12 8.25C12 7.00736 13.1193 6 14.5 6C15.8807 6 17 7.00736 17 8.25C17 8.51298 16.9499 8.76542 16.8577 9" stroke="#32257F" stroke-width="2"/>
</svg>
