<svg width="24" height="24" viewBox="0 0 24 24" fill="none" xmlns="http://www.w3.org/2000/svg">
<g clip-path="url(#clip0_3522_8918)">
<path d="M22.9834 18.0632L13.413 8.51663C13.9813 6.18966 13.2934 3.65381 11.6184 2.01305C9.76419 0.133527 6.98288 -0.493071 4.53029 0.40197C4.26117 0.491453 3.96199 0.759901 3.90212 1.11801C3.84225 1.44619 3.962 1.77434 4.20128 1.98306L6.86307 4.63819L4.64985 6.84588L1.95826 4.16103C1.68914 3.89258 1.33009 3.89258 1.21057 3.89258H1.12086L1.03115 3.92233C0.731991 4.01182 0.492921 4.25051 0.402984 4.48921C-0.4943 6.99513 0.133863 9.76969 2.01789 11.5894C3.72274 13.29 6.26479 13.9761 8.53777 13.3795L18.0185 22.9857C18.6765 23.6421 19.5738 24 20.5009 24C21.4279 24 22.3252 23.6421 22.9832 22.9857C23.6412 22.3294 24 21.4344 24 20.5096C24.0002 19.5844 23.6414 18.7194 22.9834 18.063L22.9834 18.0632ZM8.83711 5.35434C9.22597 4.96645 9.22597 4.36986 8.83711 4.01191L6.77342 1.95339H6.80325C8.08918 1.95339 9.34551 2.46052 10.2726 3.38532C11.5886 4.69802 12.0371 6.72655 11.4091 8.54636C11.3194 8.87453 11.4091 9.2624 11.6484 9.47113L21.6376 19.4353C22.2357 20.0319 22.2357 21.0462 21.6376 21.643C21.0395 22.2396 20.0227 22.2396 19.4244 21.643L9.43521 11.7086C9.2558 11.5297 9.01651 11.4102 8.77724 11.4102C8.6577 11.4102 8.50812 11.44 8.41841 11.4997C6.65391 12.0963 4.6501 11.6489 3.30409 10.3362C2.377 9.41146 1.86857 8.15848 1.86857 6.84578L3.93226 8.90431C4.11167 9.08327 4.35096 9.17275 4.62008 9.17275C4.8892 9.17275 5.12849 9.08327 5.30791 8.90431L8.83711 5.35434Z" fill="#32257F"/>
</g>
<defs>
<clipPath id="clip0_3522_8918">
<rect width="24" height="24" fill="white"/>
</clipPath>
</defs>
</svg>
