<svg width="32" height="32" fill="none" xmlns="http://www.w3.org/2000/svg"><g opacity=".8"><path d="M0 16C0 7.163 7.163 0 16 0s16 7.163 16 16-7.163 16-16 16S0 24.837 0 16z" fill="#F3F4F6"/><path d="M22.89 9.11l.495-.495-.495.495zM11.417 23.53v.7a.7.7 0 00.495-.206l-.495-.494zm-2.917 0h-.7a.7.7 0 00.7.7v-.7zm0-2.976l-.495-.495a.7.7 0 00-.205.495h.7zM20.439 9.605c.54-.54 1.416-.54 1.956 0l.99-.99a2.783 2.783 0 00-3.937 0l.99.99zm1.956 0c.54.54.54 1.416 0 1.957l.99.99a2.783 2.783 0 000-3.937l-.99.99zm0 1.957L10.922 23.035l.99.99L23.385 12.55l-.99-.99zM11.417 22.83H8.5v1.4h2.917v-1.4zm8.031-14.215L8.005 20.06l.99.99L20.439 9.605l-.99-.99zM7.8 20.554v2.976h1.4v-2.976H7.8zm10.398-9.699l2.947 2.946.99-.99-2.947-2.946-.99.99z" fill="#4F46E5"/></g></svg>
