<svg width="15" height="13" viewBox="0 0 15 13" fill="none" xmlns="http://www.w3.org/2000/svg">
<path d="M8.23582 1.59202L6.99082 0.396815C6.82582 0.238415 6.54082 0.238415 6.37582 0.396815C6.21082 0.555215 6.21082 0.828815 6.37582 0.987215L6.88582 1.47682H3.52582C3.28582 1.47682 3.09082 1.66402 3.09082 1.89442V4.40001C3.09082 4.63041 3.28582 4.81762 3.52582 4.81762C3.76582 4.81762 3.96082 4.63041 3.96082 4.40001V2.29762H6.88582L6.37582 2.78721C6.21082 2.94561 6.21082 3.21921 6.37582 3.37761C6.46582 3.46402 6.57082 3.49282 6.67582 3.49282C6.78082 3.49282 6.90082 3.44962 6.97582 3.37761L8.22082 2.18242C8.40082 2.00962 8.40082 1.75042 8.23582 1.59202Z" fill="#47505F"/>
<path d="M12.5242 7.784C12.2842 7.784 12.0892 7.9712 12.0892 8.2016V10.2896H9.16418L9.67418 9.8C9.83918 9.6416 9.83918 9.368 9.67418 9.2096C9.50918 9.0512 9.22418 9.0512 9.05918 9.2096L7.81418 10.4048C7.64918 10.5632 7.64918 10.8368 7.81418 10.9952L9.05918 12.1904C9.14918 12.2768 9.25418 12.3056 9.35918 12.3056C9.46418 12.3056 9.58418 12.2624 9.65918 12.1904C9.82418 12.032 9.82418 11.7584 9.65918 11.6L9.14918 11.1104H12.5092C12.7492 11.1104 12.9442 10.9232 12.9442 10.6928V8.2016C12.9442 7.9712 12.7642 7.784 12.5242 7.784Z" fill="#47505F"/>
<path d="M5.055 8.92161C5.4 8.56161 5.61 8.08641 5.61 7.56801C5.61 6.47361 4.68 5.56641 3.525 5.56641C2.37 5.56641 1.455 6.45921 1.455 7.56801C1.455 8.08641 1.665 8.56161 2.01 8.92161C1.065 9.20961 0.375 10.0448 0.375 11.0528V11.9456C0.375 12.176 0.57 12.3632 0.81 12.3632H6.255C6.495 12.3632 6.69 12.176 6.69 11.9456V11.0528C6.69 10.0448 6 9.19521 5.055 8.92161ZM3.525 6.40161C4.2 6.40161 4.74 6.92001 4.74 7.56801C4.74 8.21601 4.2 8.73441 3.525 8.73441C2.85 8.73441 2.31 8.21601 2.31 7.56801C2.31 6.92001 2.865 6.40161 3.525 6.40161ZM5.82 11.528H1.245V11.0384C1.245 10.2608 1.905 9.62721 2.715 9.62721H4.365C5.175 9.62721 5.835 10.2608 5.835 11.0384V11.528H5.82Z" fill="#47505F"/>
<path d="M12.9889 3.392C13.3339 3.032 13.5439 2.5568 13.5439 2.0384C13.5439 0.944004 12.6139 0.0368042 11.4589 0.0368042C10.3039 0.0368042 9.37395 0.929604 9.37395 2.0384C9.37395 2.5568 9.58395 3.032 9.92895 3.392C8.98395 3.68 8.29395 4.5152 8.29395 5.5232V6.416C8.29395 6.6464 8.48895 6.8336 8.72895 6.8336H14.1739C14.4139 6.8336 14.6089 6.6464 14.6089 6.416V5.5232C14.6239 4.5152 13.9339 3.68 12.9889 3.392ZM11.4589 0.872004C12.1339 0.872004 12.6739 1.3904 12.6739 2.0384C12.6739 2.6864 12.1339 3.2048 11.4589 3.2048C10.7839 3.2048 10.2439 2.6864 10.2439 2.0384C10.2439 1.3904 10.7989 0.872004 11.4589 0.872004ZM13.7539 5.9984H9.17895V5.5088C9.17895 4.7312 9.83895 4.0976 10.6489 4.0976H12.2989C13.1089 4.0976 13.7689 4.7312 13.7689 5.5088V5.9984H13.7539Z" fill="#47505F"/>
</svg>
