<svg width="20" height="22" viewBox="0 0 20 22" fill="none" xmlns="http://www.w3.org/2000/svg">
<path d="M10 4.89099C8.95708 4.89234 7.95722 5.31411 7.21974 6.0638C6.48226 6.8135 6.06736 7.82992 6.06604 8.89016H8.06604C8.06604 7.80548 8.93404 6.92412 10 6.92412C11.066 6.92412 11.934 7.80548 11.934 8.89016C11.934 9.49806 11.453 9.93925 10.718 10.5431C10.4779 10.7343 10.2473 10.9375 10.027 11.152C9.02904 12.1655 9.00004 13.2421 9.00004 13.362V14.0401H11L10.999 13.3966C11 13.3803 11.032 13.0042 11.44 12.5904C11.59 12.438 11.779 12.2855 11.975 12.1249C12.754 11.4834 13.933 10.5146 13.933 8.89016C13.9322 7.82993 13.5177 6.81335 12.7803 6.06357C12.0429 5.31379 11.043 4.89207 10 4.89099ZM9.00004 15.0566H11V17.0898H9.00004V15.0566Z" fill="white"/>
<path d="M10 0.824707C4.486 0.824707 0 5.38501 0 10.9903C0 16.5957 4.486 21.156 10 21.156C15.514 21.156 20 16.5957 20 10.9903C20 5.38501 15.514 0.824707 10 0.824707ZM10 19.1229C5.589 19.1229 2 15.4744 2 10.9903C2 6.50628 5.589 2.85784 10 2.85784C14.411 2.85784 18 6.50628 18 10.9903C18 15.4744 14.411 19.1229 10 19.1229Z" fill="white"/>
</svg>
