<?xml version="1.0"?>
<svg xmlns="http://www.w3.org/2000/svg" height="512px" viewBox="0 -64 512 512" width="512px" class=""><g><path d="m453.332031 384h-394.664062c-32.363281 0-58.667969-26.304688-58.667969-58.667969v-266.664062c0-32.363281 26.304688-58.667969 58.667969-58.667969h394.664062c32.363281 0 58.667969 26.304688 58.667969 58.667969v266.664062c0 32.363281-26.304688 58.667969-58.667969 58.667969zm-394.664062-352c-14.699219 0-26.667969 11.96875-26.667969 26.667969v266.664062c0 14.699219 11.96875 26.667969 26.667969 26.667969h394.664062c14.699219 0 26.667969-11.96875 26.667969-26.667969v-266.664062c0-14.699219-11.96875-26.667969-26.667969-26.667969zm0 0" data-original="#000000" class="active-path" data-old_color="#000000" fill="#5F7D95"/><path d="m106.667969 149.332031c-23.53125 0-42.667969-19.132812-42.667969-42.664062s19.136719-42.667969 42.667969-42.667969 42.664062 19.136719 42.664062 42.667969-19.132812 42.664062-42.664062 42.664062zm0-53.332031c-5.890625 0-10.667969 4.777344-10.667969 10.667969 0 5.886719 4.777344 10.664062 10.667969 10.664062 5.886719 0 10.664062-4.777343 10.664062-10.664062 0-5.890625-4.777343-10.667969-10.664062-10.667969zm0 0" data-original="#000000" class="active-path" data-old_color="#000000" fill="#5F7D95"/><path d="m16 341.332031c-4.097656 0-8.191406-1.554687-11.308594-4.691406-6.25-6.25-6.25-16.382813 0-22.636719l118.1875-118.183594c14.59375-14.59375 38.335938-14.59375 52.90625 0l26.882813 26.878907 101.546875-101.546875c14.589844-14.59375 38.335937-14.59375 52.90625 0l150.1875 150.1875c6.25 6.25 6.25 16.382812 0 22.632812-6.253906 6.25-16.386719 6.25-22.636719 0l-150.1875-150.1875c-2.089844-2.089844-5.589844-2.089844-7.65625 0l-112.855469 112.855469c-6.25 6.25-16.382812 6.25-22.632812 0l-38.1875-38.1875c-2.710938-2.710937-4.949219-2.710937-7.660156 0l-118.183594 118.1875c-3.117188 3.136719-7.210938 4.691406-11.308594 4.691406zm0 0" data-original="#000000" class="active-path" data-old_color="#000000" fill="#5F7D95"/></g> </svg>
