<svg width="24" height="24" xmlns="http://www.w3.org/2000/svg" enable-background="new 0 0 24 24">
 <g>
  <title>Layer 1</title>
  <path d="m18.75,9l-0.75,0l0,-3c0,-3.309 -2.691,-6 -6,-6s-6,2.691 -6,6l0,3l-0.75,0c-1.24,0 -2.25,1.009 -2.25,2.25l0,10.5c0,1.241 1.01,2.25 2.25,2.25l13.5,0c1.24,0 2.25,-1.009 2.25,-2.25l0,-10.5c0,-1.241 -1.01,-2.25 -2.25,-2.25zm-10.75,-3c0,-2.206 1.794,-4 4,-4s4,1.794 4,4l0,3l-8,0l0,-3zm5,10.722l0,2.278c0,0.552 -0.447,1 -1,1s-1,-0.448 -1,-1l0,-2.278c-0.595,-0.347 -1,-0.985 -1,-1.722c0,-1.103 0.897,-2 2,-2s2,0.897 2,2c0,0.737 -0.405,1.375 -1,1.722z" id="svg_1"/>
  <rect stroke="#000" stroke-width="0" id="svg_2" height="3.43282" width="13.53229" y="5.61188" x="2.39805" fill="#fff"/>
 </g>

</svg>