<svg width="19" height="20" viewBox="0 0 19 20" fill="none" xmlns="http://www.w3.org/2000/svg">
<path d="M18.2377 0.387817C18.1475 0.387817 18.0549 0.404716 17.9623 0.44334L4.27447 6.03425H0.379953C0.170979 6.03425 0 6.21289 0 6.43498L0 13.653C0 13.875 0.170979 14.0537 0.379953 14.0537H2.79503C2.70716 14.3337 2.65967 14.6306 2.65967 14.9324C2.65967 16.5233 3.93726 17.8172 5.50931 17.8172C6.8249 17.8172 7.93388 16.9095 8.26159 15.6832L17.9646 19.647C18.0572 19.6832 18.1499 19.7025 18.2401 19.7025C18.6414 19.7025 19 19.3597 19 18.9011V1.18928C18.9976 0.730611 18.6414 0.387817 18.2377 0.387817ZM5.50931 16.0863C4.88002 16.0863 4.36945 15.5697 4.36945 14.9324C4.36945 14.662 4.46207 14.4037 4.63067 14.1985L6.64679 15.0217C6.5993 15.6156 6.10774 16.0863 5.50931 16.0863ZM17.2878 17.4961L4.91089 12.4411L4.60455 12.3156H1.70979V7.77236H4.60455L4.91089 7.64683L17.2878 2.59183V17.4961Z" fill="white"/>
</svg>
