<svg width="18" height="16" viewBox="0 0 18 16" fill="none" xmlns="http://www.w3.org/2000/svg">
<path d="M9 14.6663C13.1421 14.6663 16.5 11.6816 16.5 7.99967C16.5 4.31778 13.1421 1.33301 9 1.33301C4.85787 1.33301 1.5 4.31778 1.5 7.99967C1.5 9.31157 1.9263 10.535 2.66249 11.5664L1.5 14.6663L5.45389 13.8756C6.50976 14.3801 7.71728 14.6663 9 14.6663Z" fill="white"/>
<path d="M5.66667 7.99967H5.675M9 7.99967H9.00834M12.3333 7.99967H12.3417M16.5 7.99967C16.5 11.6816 13.1421 14.6663 9 14.6663C7.71728 14.6663 6.50976 14.3801 5.45389 13.8756L1.5 14.6663L2.66249 11.5664C1.9263 10.535 1.5 9.31157 1.5 7.99967C1.5 4.31778 4.85787 1.33301 9 1.33301C13.1421 1.33301 16.5 4.31778 16.5 7.99967Z" stroke="#2563EB" stroke-width="1.5" stroke-linecap="round" stroke-linejoin="round"/>
</svg>
