<svg width="24" height="24" viewBox="0 0 24 24" fill="none" xmlns="http://www.w3.org/2000/svg">
<path d="M7.3125 14L2.6875 20H21.3125L15.3125 12L10.6875 18L7.3125 14ZM24 21.3125C24 22.0208 23.7292 22.6458 23.1875 23.1875C22.6458 23.7292 22.0208 24 21.3125 24H2.6875C1.97916 24 1.35417 23.7292 0.8125 23.1875C0.270831 22.6458 0 22.0208 0 21.3125V2.6875C0 1.97916 0.270831 1.35417 0.8125 0.8125C1.35417 0.270831 1.97916 0 2.6875 0H21.3125C22.0208 0 22.6458 0.270831 23.1875 0.8125C23.7292 1.35417 24 1.97916 24 2.6875V21.3125Z" fill="white"/>
</svg>
