<svg width="21" height="21" viewBox="0 0 21 21" fill="none" xmlns="http://www.w3.org/2000/svg">
                <path
                  d="M10.5 -3.27321e-08C11.3284 -1.46546e-08 12 0.671573 12 1.5L12 19.5C12 20.3284 11.3284 21 10.5 21C9.67157 21 9 20.3284 9 19.5L9 1.5C9 0.671573 9.67157 -5.08095e-08 10.5 -3.27321e-08Z"
                  fill="#9A9A9A"
                />
                <path
                  d="M10.5 -3.27321e-08C11.3284 -1.46546e-08 12 0.671573 12 1.5L12 19.5C12 20.3284 11.3284 21 10.5 21C9.67157 21 9 20.3284 9 19.5L9 1.5C9 0.671573 9.67157 -5.08095e-08 10.5 -3.27321e-08Z"
                  fill="#9A9A9A"
                />
                <path
                  d="M10.5 -3.27321e-08C11.3284 -1.46546e-08 12 0.671573 12 1.5L12 19.5C12 20.3284 11.3284 21 10.5 21C9.67157 21 9 20.3284 9 19.5L9 1.5C9 0.671573 9.67157 -5.08095e-08 10.5 -3.27321e-08Z"
                  fill="#A3A3A3"
                />
                <path
                  d="M21 10.5C21 11.3284 20.3284 12 19.5 12L1.5 12C0.671574 12 1.47008e-08 11.3284 3.28351e-08 10.5C5.09694e-08 9.67157 0.671574 9 1.5 9L19.5 9C20.3284 9 21 9.67157 21 10.5Z"
                  fill="#9A9A9A"
                />
                <path
                  d="M21 10.5C21 11.3284 20.3284 12 19.5 12L1.5 12C0.671574 12 1.47008e-08 11.3284 3.28351e-08 10.5C5.09694e-08 9.67157 0.671574 9 1.5 9L19.5 9C20.3284 9 21 9.67157 21 10.5Z"
                  fill="#9A9A9A"
                />
                <path
                  d="M21 10.5C21 11.3284 20.3284 12 19.5 12L1.5 12C0.671574 12 1.47008e-08 11.3284 3.28351e-08 10.5C5.09694e-08 9.67157 0.671574 9 1.5 9L19.5 9C20.3284 9 21 9.67157 21 10.5Z"
                  fill="#A3A3A3"
                />
              </svg>