<svg width="79" height="56" viewBox="0 0 79 56" fill="none" xmlns="http://www.w3.org/2000/svg">
<mask id="mask0_197_18308" style="mask-type:alpha" maskUnits="userSpaceOnUse" x="0" y="0" width="77" height="56">
<rect x="0.5" y="0.5" width="76" height="55" rx="7.5" fill="white" stroke="#4F46E5"/>
</mask>
<g mask="url(#mask0_197_18308)">
<g opacity="0.8">
<g opacity="0.8">
<circle r="12.5" transform="matrix(-1 0 0 1 52.041 32.5)" stroke="#4F46E5" stroke-width="2"/>
<circle r="5.95455" transform="matrix(-1 0 0 1 52.0411 32.5)" stroke="#4F46E5" stroke-width="2"/>
</g>
<g opacity="0.4">
<path d="M82.2567 31.3033L78.1218 29.9527C75.569 29.1189 72.7648 29.7319 70.7928 31.5549V31.5549C68.8208 33.3779 66.0166 33.9909 63.4638 33.1571V33.1571C60.911 32.3233 58.1068 32.9363 56.1348 34.7593L52.9407 37.712" stroke="#4F46E5" stroke-width="2"/>
<path d="M83.6678 37.7579L79.5329 36.4073C76.9801 35.5735 74.1759 36.1865 72.2039 38.0095V38.0095C70.2319 39.8325 67.4277 40.4455 64.8749 39.6117V39.6117C62.3221 38.7779 59.5179 39.3909 57.5459 41.2139L54.3518 44.1666" stroke="#4F46E5" stroke-width="2"/>
<path d="M85.0789 44.2129L80.9441 42.8624C78.3912 42.0286 75.5871 42.6416 73.6151 44.4646V44.4646C71.643 46.2876 68.8389 46.9006 66.2861 46.0668V46.0668C63.7332 45.233 60.9291 45.846 58.9571 47.669L55.7629 50.6217" stroke="#4F46E5" stroke-width="2"/>
</g>
</g>
</g>
</svg>
